<?xml version="1.0" standalone="no"?>
<!DOCTYPE svg PUBLIC "-//W3C//DTD SVG 1.1//EN" "http://www.w3.org/Graphics/SVG/1.1/DTD/svg11.dtd" >
<svg xmlns="http://www.w3.org/2000/svg">
<metadata></metadata>
<defs>
<font id="mfw_protocolharelmedium" horiz-adv-x="0" >
<font-face units-per-em="1000" ascent="800" descent="-200" />
<missing-glyph horiz-adv-x="250" />
<glyph horiz-adv-x="1000" />
<glyph horiz-adv-x="1000" />
<glyph unicode="&#xd;" horiz-adv-x="250" />
<glyph unicode=" "  horiz-adv-x="250" />
<glyph unicode="&#x09;" horiz-adv-x="250" />
<glyph unicode="&#xa0;" horiz-adv-x="250" />
<glyph unicode="!" horiz-adv-x="213" d="M144 196h-76l-13 412h102zM50 0v112h112v-112h-112z" />
<glyph unicode="&#x22;" horiz-adv-x="319" d="M243 404h-71l51 203h93zM93 404h-71l51 203h93z" />
<glyph unicode="#" horiz-adv-x="556" d="M422 365l-18 -114h95v-67h-106l-29 -184h-76l29 184h-118l-29 -184h-76l29 184h-95v67h106l18 114h-96v68h107l29 183h76l-29 -183h118l29 183h76l-29 -183h95v-68h-106zM228 365l-18 -114h118l18 114h-118z" />
<glyph unicode="$" horiz-adv-x="379" d="M337 143q0 -60 -35.5 -98.5t-94.5 -48.5v-74h-42v69h-9q-32 0 -59 5.5t-53 16.5l9 70q20 -14 44.5 -20.5t56.5 -6.5h11v179l-25 12q-43 22 -72.5 52.5t-29.5 83.5q0 28 10 51t27 40.5t40 29t50 15.5v74h42v-71q27 -1 53 -5t52 -13l-10 -68q-37 22 -87 22h-8v-160l43 -24 q21 -11 37 -23.5t27 -28t17 -35t6 -44.5zM165 452q-24 -9 -36.5 -24t-12.5 -43q0 -23 15.5 -38.5t33.5 -26.5v132zM259 139q0 30 -15 46.5t-37 27.5v-149q23 8 37.5 29t14.5 46z" />
<glyph unicode="%" horiz-adv-x="701" d="M638 139q0 -69 -27.5 -110t-82.5 -41q-56 0 -83 40.5t-27 109.5t27.5 110.5t82.5 41.5q56 0 83 -41t27 -110zM237 -22h-72l321 550h72zM310 396q0 -69 -27 -110t-82 -41q-56 0 -83 40.5t-27 109.5t27.5 110.5t82.5 41.5q56 0 82.5 -41t26.5 -110zM578 142 q0 49 -13.5 69.5t-35.5 20.5t-36.5 -22.5t-14.5 -72.5q0 -48 13.5 -69.5t35.5 -21.5q23 0 37 22t14 74zM250 399q0 49 -13 69.5t-35 20.5t-36.5 -22t-14.5 -72q0 -48 13.5 -70t35.5 -22q23 0 36.5 22t13.5 74z" />
<glyph unicode="&#x26;" horiz-adv-x="680" d="M675 90q0 -29 -50 -71q-38 -32 -85 -32q-76 0 -153 83q-101 -83 -200 -83q-69 0 -109 37t-40 106q0 70 58 127q15 15 47 39q15 11 33 22t38 22q-32 98 -32 128q0 58 39 99q38 41 99 41q52 0 87 -29q36 -29 36 -79q0 -57 -45 -97q-29 -26 -96 -57q25 -51 54.5 -96 t64.5 -90q83 104 83 164q0 24 -18 33q-14 5 -40 8v18h195v-18q-32 -5 -45 -12q-24 -14 -40 -42l-22 -37q-5 -10 -11.5 -20t-13.5 -21t-15 -22.5t-16 -23.5l-35 -52q16 -32 57 -57q41 -26 76 -26q30 0 50 12q4 3 7.5 6t7.5 7l21 24zM394 504q0 32 -19 54t-51 22 q-70 0 -70 -78q0 -52 36 -128q104 59 104 130zM364 94q-16 19 -32 41.5t-33 48.5q-35 54 -72 126l-22 -16l-20 -15q-13 -11 -31 -30q-33 -38 -33 -87q0 -52 33 -88q35 -38 84 -38q59 0 126 58z" />
<glyph unicode="'" horiz-adv-x="169" d="M93 404h-71l51 203h93z" />
<glyph unicode="(" horiz-adv-x="331" d="M191 -149q-31 46 -58 94t-47.5 98.5t-32 104t-11.5 110.5q0 58 11.5 111t32 103t47.5 98t58 95h82q-26 -47 -51.5 -95.5t-45 -99.5t-31.5 -104t-12 -108t11.5 -108t31 -104t45 -100t52.5 -95h-82z" />
<glyph unicode=")" horiz-adv-x="331" d="M289 258q0 -57 -11.5 -110.5t-32 -104t-47.5 -98.5t-58 -94h-82q27 46 52.5 95t45 100t31 104t11.5 108t-12 108t-31.5 104t-45 99.5t-51.5 95.5h82q31 -47 58 -95t47 -98t32 -103t12 -111z" />
<glyph unicode="*" horiz-adv-x="484" d="M279 456l94 -108l-66 -44l-71 121l-72 -121l-65 44l97 108l-141 28l25 75l132 -54l-14 139h80l-13 -139l128 54l24 -75z" />
<glyph unicode="+" horiz-adv-x="423" d="M250 231v-115h-76v115h-121v76h121v126h76v-126h120v-76h-120z" />
<glyph unicode="," horiz-adv-x="190" d="M70 -106h-71l51 203h93z" />
<glyph unicode="-" horiz-adv-x="108" />
<glyph unicode="." horiz-adv-x="190" d="M20 0v112h112v-112h-112z" />
<glyph unicode="/" horiz-adv-x="278" d="M55 -14h-88l211 608h88z" />
<glyph unicode="0" horiz-adv-x="455" d="M421 260q0 -60 -12 -109.5t-36.5 -84.5t-60.5 -54t-84 -19q-49 0 -85.5 18.5t-60.5 53t-36 83.5t-12 110t12 110.5t36.5 84.5t61 54t84.5 19q49 0 85 -19t60 -53.5t36 -83.5t12 -110zM332 265q0 102 -28.5 146t-73.5 44q-47 0 -77 -47.5t-30 -151.5q0 -101 29 -146.5 t74 -45.5q23 0 42.5 11t33.5 35.5t22 62.5t8 92z" />
<glyph unicode="1" horiz-adv-x="455" d="M191 0v433l-102 -50v79l135 61h61v-523h-94z" />
<glyph unicode="2" horiz-adv-x="455" d="M40 0q1 10 4 20q2 8 4.5 17.5t5.5 17.5q12 34 27 59.5t35 46t45 39.5t56 42q18 13 36.5 27t34.5 29.5t26 34t10 41.5q0 37 -23.5 58.5t-57.5 21.5q-27 0 -45 -11.5t-30 -29t-19 -37.5t-12 -38l-87 20q11 36 18 54t18 35q23 37 65 57.5t93 20.5q38 0 69.5 -11.5t54 -31.5 t34.5 -48t12 -62q0 -33 -11.5 -58.5t-31 -46.5t-44 -39t-51.5 -37q-46 -32 -78.5 -61t-48.5 -54h266v-76h-375z" />
<glyph unicode="3" horiz-adv-x="455" d="M421 152q0 -35 -14 -64t-38.5 -50t-59 -33t-74.5 -12q-32 0 -59 6t-51 19.5t-46 35t-45 52.5l73 44q37 -50 65.5 -68t63.5 -18q42 0 68.5 23t26.5 60q0 44 -29.5 71.5t-95.5 27.5l-20 1v53h21q58 0 84 24t26 61q0 32 -22 51t-60 19q-29 0 -53.5 -14t-56.5 -55l-68 46 q38 48 83.5 71t97.5 23q36 0 67 -10t53.5 -28t35 -43.5t12.5 -55.5q0 -38 -21 -68t-63 -45q48 -12 73.5 -46.5t25.5 -77.5z" />
<glyph unicode="4" horiz-adv-x="455" d="M348 121v-121h-94v121h-231v57l212 347h113v-331h84v-73h-84zM254 405l-131 -211h131v211z" />
<glyph unicode="5" horiz-adv-x="455" d="M414 182q0 -42 -13.5 -76.5t-39 -59t-61.5 -38.5t-80 -14q-58 0 -103.5 27t-75.5 84l76 38q14 -23 26.5 -38t25.5 -24t26.5 -12.5t30.5 -3.5q42 0 70 30t28 90q0 51 -25 76.5t-66 25.5q-29 0 -55.5 -17.5t-40.5 -52.5l-76 17l20 285h297v-74h-214l-9 -107q38 20 85 20 q40 0 72 -13t54.5 -36.5t35 -56t12.5 -70.5z" />
<glyph unicode="6" horiz-adv-x="455" d="M418 172q0 -38 -14 -71t-39 -57t-59.5 -37.5t-75.5 -13.5q-46 0 -82 16.5t-60.5 46.5t-37.5 71.5t-13 91.5q0 70 15 126.5t45 96.5t74 62t101 22q16 0 30.5 -2t30 -6.5t34.5 -12.5t44 -20l-47 -63q-36 20 -55 26.5t-37 6.5q-35 0 -59 -14.5t-40 -36t-25 -47.5t-14 -50 q43 33 107 33q39 0 71.5 -13t56 -35.5t36.5 -53t13 -66.5zM328 174q0 45 -25.5 70t-66.5 25q-20 0 -36.5 -7t-30 -18t-24.5 -25t-19 -27q5 -66 33 -97t72 -31q42 0 69.5 28.5t27.5 81.5z" />
<glyph unicode="7" horiz-adv-x="455" d="M191 0h-103l209 445h-247v74h355v-47z" />
<glyph unicode="8" horiz-adv-x="455" d="M425 144q0 -34 -15 -62t-41 -47.5t-62.5 -30.5t-79.5 -11q-44 0 -80.5 10.5t-62.5 30t-40 47t-14 62.5q0 43 26 76.5t75 56.5q-42 23 -62 51t-20 66q0 30 14 54.5t38.5 42t58 27t71.5 9.5q37 0 69 -9.5t56 -27t37.5 -42t13.5 -53.5q0 -41 -20.5 -68.5t-64.5 -49.5 q52 -25 77.5 -56.5t25.5 -75.5zM318 389q0 29 -23 47.5t-66 18.5q-42 0 -66 -19t-24 -45q0 -18 9 -30.5t23 -21.5t30.5 -16t31.5 -13q26 10 42.5 19t26 18t13 19.5t3.5 22.5zM337 141q0 21 -12.5 39t-37.5 30q-14 7 -28 12.5l-42 16.5q-56 -21 -77.5 -43.5t-21.5 -53.5 q0 -32 30 -55t82 -23q50 0 78.5 22t28.5 55z" />
<glyph unicode="9" horiz-adv-x="455" d="M418 300q0 -70 -15 -126.5t-45 -96.5t-74 -62t-101 -22q-16 0 -30.5 2t-30.5 6.5t-35 13t-43 20.5l47 64q36 -22 55 -28.5t37 -6.5q34 0 58.5 14.5t40.5 36.5t25 48t14 50q-44 -33 -107 -33q-39 0 -71.5 12.5t-56 35t-36.5 53.5t-13 67q0 38 14 70.5t39 56.5t59.5 37.5 t75.5 13.5q46 0 81.5 -16.5t60.5 -46.5t38 -71.5t13 -91.5zM329 328q-5 66 -33.5 96.5t-71.5 30.5q-42 0 -69.5 -28.5t-27.5 -81.5q0 -45 25.5 -69t66.5 -24q39 0 66.5 24.5t43.5 51.5z" />
<glyph unicode=":" horiz-adv-x="190" d="M20 400v112h112v-112h-112zM20 0v112h112v-112h-112z" />
<glyph unicode=";" horiz-adv-x="190" d="M78 400v112h112v-112h-112zM111 -106h-71l51 203h93z" />
<glyph unicode="&#x3c;" horiz-adv-x="430" d="M-2 222v65l434 191v-76l-337 -148l337 -148v-75z" />
<glyph unicode="=" horiz-adv-x="383" d="M53 301v76h277v-76h-277zM53 151v76h277v-76h-277z" />
<glyph unicode="&#x3e;" horiz-adv-x="600" d="M83 31v75l337 148l-337 148v76l434 -191v-65z" />
<glyph unicode="?" horiz-adv-x="449" d="M361 444q0 -23 -6 -42.5t-16 -36.5t-23 -33t-27 -32q-18 -21 -32 -41t-14 -50v-23h-90v25q0 34 8 56t21 39t29 34t31 40q9 14 14.5 28t5.5 31q0 33 -23.5 49t-57.5 16q-38 0 -63.5 -8.5t-55.5 -30.5l-7 97q34 14 66 21t69 7q31 0 62 -9t55 -27.5t39 -46t15 -63.5zM143 0 v112h112v-112h-112z" />
<glyph unicode="@" horiz-adv-x="968" d="M928 94q-67 -151 -163 -224q-106 -82 -268 -82q-199 0 -320 130q-116 125 -116 319q0 197 135 328q137 131 341 131q150 0 246 -99q96 -98 96 -256q0 -139 -77 -249q-77 -108 -175 -108q-97 0 -101 76q-1 22 8 69q-32 -37 -53.5 -60.5t-33.5 -34.5q-59 -50 -103 -50 q-45 0 -70 37q-22 31 -22 82q0 110 86 235q92 131 195 131q30 0 50 -25.5t25 -59.5l20 65l82 10l-94 -317q-13 -40 -13 -74q0 -50 36 -50q76 0 141 101q65 104 65 226q0 136 -92 231q-90 92 -214 92q-191 0 -314 -130q-120 -126 -120 -311q0 -167 109 -285 q114 -124 289 -124q281 0 395 276h30zM585 369q0 28 -22 50q-23 24 -43 24q-76 0 -142 -122q-58 -109 -58 -203q0 -70 55 -70q71 0 143 117q67 109 67 204z" />
<glyph unicode="A" horiz-adv-x="750" d="M742 0h-280v18q74 0 74 43q0 19 -12 46l-51 120h-265l-52 -120q-12 -27 -12 -45q0 -44 79 -44v-18h-217v18q59 0 97 89l253 589h24l249 -589q21 -50 42 -68q24 -21 71 -21v-18zM454 265l-113 274l-118 -274h231z" />
<glyph unicode="B" horiz-adv-x="672" d="M621 184q0 -80 -60 -132q-58 -52 -156 -52h-385v18q54 0 75 18.5t21 71.5v464q0 53 -21 71.5t-75 18.5v18h345q100 0 161 -46q63 -47 63 -121q0 -57 -24 -91t-89 -69v-2q67 -11 106 -55.5t39 -111.5zM483 503q0 64 -42 102q-47 41 -136 41q-21 0 -42 -3t-43 -8v-258 q24 -7 131 -7q61 0 96.5 38t35.5 95zM509 180q0 69 -41 110q-46 46 -141 46q-26 0 -52.5 -1.5t-54.5 -5.5v-279q23 -5 51 -8t62 -3q86 0 133 42q43 37 43 99z" />
<glyph unicode="C" horiz-adv-x="685" d="M652 159q-42 -75 -107 -122q-77 -53 -159 -53q-152 0 -253 101t-101 247q0 151 106 257q107 107 251 107q53 0 92 -12q13 -4 25.5 -9.5t25.5 -12.5q22 -12 32 -12q11 0 22 13.5t15 32.5h17l17 -231h-24q-10 82 -70 139q-58 58 -135 58q-113 0 -184 -95q-68 -92 -68 -239 q0 -140 78 -224q73 -81 189 -81q119 0 214 146z" />
<glyph unicode="D" horiz-adv-x="737" d="M705 346q0 -149 -93 -245q-98 -101 -265 -101h-327v18q54 0 75 18.5t21 71.5v464q0 53 -21 71.5t-75 18.5v18h302q190 0 278 -82q105 -98 105 -252zM583 344q0 127 -72 214q-72 88 -181 88q-48 0 -110 -17v-579q41 -16 110 -16q108 0 179 83q74 88 74 227z" />
<glyph unicode="E" horiz-adv-x="625" d="M607 191l-61 -191h-526v18q54 0 75 18.5t21 71.5v464q0 53 -21 71.5t-75 18.5v18h522l8 -162h-18q-14 66 -43 95q-33 33 -97 33h-172v-258h147q102 0 102 88h18v-230h-18q0 108 -100 108h-149v-278q0 -17 12 -29.5t28 -12.5h142q132 0 181 157h24z" />
<glyph unicode="F" horiz-adv-x="552" d="M532 518h-18q-14 66 -43 95q-33 33 -97 33h-154v-258h103q102 0 102 88h18v-230h-18q0 108 -100 108h-105v-246q0 -53 21 -71.5t75 -18.5v-18h-296v18q54 0 75 18.5t21 71.5v464q0 53 -21 71.5t-75 18.5v18h504z" />
<glyph unicode="G" horiz-adv-x="758" d="M726 345q-39 0 -54 -18.5t-15 -66.5v-210q-111 -66 -271 -66q-152 0 -253 101t-101 247q0 151 106 257q107 107 251 107q70 0 127 -23t60 -23q11 0 22 13.5t15 32.5h17l17 -231h-24q-50 197 -217 197q-113 0 -184 -95q-68 -91 -68 -239q0 -140 78 -224q73 -81 189 -81 q79 0 132 47v190q0 24 -4.5 40.5t-15 26.5t-29 14t-46.5 4v18h268v-18z" />
<glyph unicode="H" horiz-adv-x="751" d="M731 0h-296v18q54 0 75 18.5t21 71.5v228h-311v-228q0 -53 21 -71.5t75 -18.5v-18h-296v18q54 0 75 18.5t21 71.5v464q0 53 -21 71.5t-75 18.5v18h296v-18q-54 0 -75 -18.5t-21 -71.5v-202h311v202q0 53 -21 71.5t-75 18.5v18h296v-18q-54 0 -75 -18.5t-21 -71.5v-464 q0 -53 21 -71.5t75 -18.5v-18z" />
<glyph unicode="I" horiz-adv-x="342" d="M319 0h-296v18q54 0 75 18.5t21 71.5v464q0 53 -21 71.5t-75 18.5v18h296v-18q-54 0 -75 -18.5t-21 -71.5v-464q0 -53 21 -71.5t75 -18.5v-18z" />
<glyph unicode="J" horiz-adv-x="397" d="M387 662q-54 0 -75 -18.5t-21 -71.5v-354q0 -115 -51 -174.5t-139 -59.5q-41 0 -67 19q-30 22 -30 59q0 21 17.5 35.5t37.5 14.5q30 0 44 -24l19 -47q11 -23 31 -23q34 0 34 65v489q0 53 -21 71.5t-75 18.5v18h296v-18z" />
<glyph unicode="K" horiz-adv-x="752" d="M761 0h-317v18q48 0 48 36q0 18 -38 56l-234 235v-237q0 -53 21 -71.5t75 -18.5v-18h-296v18q54 0 75 18.5t21 71.5v464q0 53 -21 71.5t-75 18.5v18h296v-18q-54 0 -75 -18.5t-21 -71.5v-193l217 196q46 42 46 63q0 24 -63 24v18h251v-19q-23 0 -42.5 -3.5t-39 -13 t-39.5 -24.5t-44 -37l-202 -189l276 -275q35 -35 59.5 -56t38.5 -29q29 -16 83 -16v-18z" />
<glyph unicode="L" horiz-adv-x="628" d="M610 185l-59 -185h-531v18q54 0 75 18.5t21 71.5v464q0 53 -21 71.5t-75 18.5v18h296v-18q-54 0 -75 -18.5t-21 -71.5v-487q0 -21 11.5 -36t27.5 -15h127q154 0 204 156z" />
<glyph unicode="M" horiz-adv-x="926" d="M904 0h-296v18q54 0 75 18.5t21 71.5v449h-4l-253 -557h-21l-257 553h-7v-445q0 -53 21 -71.5t75 -18.5v-18h-238v18q54 0 75 18.5t21 71.5v464q0 53 -21 71.5t-75 18.5v18h202l241 -522h5l236 522h200v-18q-54 0 -75 -18.5t-21 -71.5v-464q0 -53 21 -71.5t75 -18.5v-18z " />
<glyph unicode="N" horiz-adv-x="739" d="M722 662q-54 0 -75 -18.5t-21 -71.5v-588h-24l-439 553h-4v-429q0 -53 21 -71.5t75 -18.5v-18h-238v18q54 0 75 18.5t21 71.5v458q0 21 -9 38.5t-24 30.5t-35.5 20t-44.5 7v18h171l405 -497h4v389q0 53 -21 71.5t-75 18.5v18h238v-18z" />
<glyph unicode="O" horiz-adv-x="746" d="M714 344q0 -149 -99 -255q-99 -105 -242 -105t-242 105q-99 106 -99 255q0 147 99 249q99 103 242 103t242 -103q99 -102 99 -249zM592 344q0 143 -57 229q-59 89 -162 89q-104 0 -163 -89q-56 -86 -56 -229q0 -145 56 -233q58 -93 163 -93q103 0 162 93q57 88 57 233z " />
<glyph unicode="P" horiz-adv-x="576" d="M544 486q0 -89 -64 -138q-56 -45 -139 -45q-75 0 -121 12v-207q0 -53 21 -71.5t75 -18.5v-18h-296v18q54 0 75 18.5t21 71.5v464q0 53 -21 71.5t-75 18.5v18h292q99 0 164 -50q68 -54 68 -144zM432 479q0 70 -40 116q-41 47 -98 47q-44 0 -74 -10v-279q49 -15 79 -15 q64 0 100 41q33 37 33 100z" />
<glyph unicode="Q" horiz-adv-x="738" d="M706 344q0 -121 -72 -221q-73 -103 -184 -129q23 -74 92 -128q74 -61 160 -61v-18q-126 0 -258 72q-57 31 -100 66t-72 73q-103 28 -172 130q-68 103 -68 216q0 148 97 249q97 103 240 103t240 -103q97 -101 97 -249zM588 344q0 143 -57 229q-59 89 -162 89 q-104 0 -163 -89q-56 -86 -56 -229q0 -145 56 -233q58 -93 163 -93q106 13 162.5 98t56.5 228z" />
<glyph unicode="R" horiz-adv-x="691" d="M702 0h-194l-215 320h-73v-212q0 -53 21 -71.5t75 -18.5v-18h-296v18q54 0 75 18.5t21 71.5v464q0 53 -21 71.5t-75 18.5v18h310q107 0 168 -50q56 -47 56 -127q0 -63 -41 -109t-110 -64l145 -213q67 -99 154 -99v-18zM442 499q0 63 -37 104q-37 43 -93 43q-59 0 -92 -13 v-279h60q36 0 65.5 10.5t51 29t33.5 45.5t12 60z" />
<glyph unicode="S" horiz-adv-x="560" d="M510 179q0 -82 -59 -138q-63 -57 -168 -57q-52 0 -106 20q-47 18 -62 18q-26 0 -32 -38h-18v230h18q8 -90 70 -142q59 -50 138 -50q53 0 90 31q39 31 39 81q0 68 -94 126l-174 100q-94 66 -94 153q0 78 56 131q56 52 146 52q34 0 85 -16q3 -1 11.5 -4.5t22.5 -9.5 q21 -8 31 -8q14 0 25.5 12.5t11.5 25.5h18v-237h-19q-9 94 -57 146.5t-129 52.5q-53 0 -89 -36q-33 -32 -33 -73q0 -59 96 -117l180 -104q96 -68 96 -149z" />
<glyph unicode="T" horiz-adv-x="590" d="M578 518h-18q-14 66 -43 95q-33 33 -97 33h-74v-538q0 -53 21 -71.5t75 -18.5v-18h-296v18q54 0 75 18.5t21 71.5v538h-74q-64 0 -95.5 -31t-44.5 -97h-18l8 162h552z" />
<glyph unicode="U" horiz-adv-x="752" d="M743 662q-54 0 -75 -18.5t-21 -71.5v-333q0 -113 -63 -180q-72 -75 -208 -75q-124 0 -196 76q-67 70 -67 181v331q0 53 -21 71.5t-75 18.5v18h296v-18q-54 0 -75 -18.5t-21 -71.5v-333q0 -88 53 -150q52 -61 139 -61t141 62q51 58 51 149v333q0 53 -21 71.5t-75 18.5v18 h238v-18z" />
<glyph unicode="V" horiz-adv-x="724" d="M721 662q-61 0 -107 -115l-228 -563h-26l-258 594q-20 46 -43 65t-59 19v18h278v-18q-74 0 -74 -47q0 -19 14 -53l183 -423l168 416q12 28 12 51q0 56 -70 56v18h210v-18z" />
<glyph unicode="W" horiz-adv-x="946" d="M950 662q-42 0 -61 -27q-13 -15 -34 -78l-195 -573h-24l-157 431l-153 -431h-24l-204 570q-22 61 -38 82q-20 26 -60 26v18h252v-18q-67 0 -67 -37q0 -18 17 -67l140 -395l113 318l-26 74q-21 59 -37 79q-24 28 -69 28v18h265v-18q-68 0 -68 -38q0 -25 15 -68l136 -393 l138 396q11 35 11 53q0 50 -73 50l1 18h202v-18z" />
<glyph unicode="X" horiz-adv-x="742" d="M734 0h-295v17q67 1 67 39q0 20 -20 52l-126 190l-143 -184q-27 -27 -27 -54q0 -42 62 -42v-18h-252v18q41 0 87 28q45 26 71 61l177 231l-167 241q-59 83 -144 83v18h319v-18q-72 0 -72 -38q0 -19 20 -48l107 -158l124 157q26 34 26 53q0 34 -69 34v18h239v-19 q-39 1 -68.5 -16t-62.5 -59l-166 -209l192 -269q34 -48 50 -63q31 -27 71 -27v-18z" />
<glyph unicode="Y" horiz-adv-x="694" d="M695 662q-21 0 -38 -4.5t-31.5 -14.5t-28 -26t-28.5 -40l-178 -283v-186q0 -53 21 -71.5t75 -18.5v-18h-296v18q54 0 75 18.5t21 71.5v175l-201 302q-27 40 -42 55q-23 22 -60 22v18h296v-18q-83 0 -81 -47q0 -19 18 -47l147 -236l153 246q10 16 10 35q0 49 -71 49v18 h239v-18z" />
<glyph unicode="Z" horiz-adv-x="622" d="M598 178l-32 -178h-556v17l438 624h-210q-76 0 -107 -28q-31 -27 -42 -104h-18l15 171h511l-451 -641h275q25 0 49 10.5t45 29t37.5 44t27.5 55.5h18z" />
<glyph unicode="[" horiz-adv-x="257" d="M40 -194v884h177v-58h-102v-768h102v-58h-177z" />
<glyph unicode="\" horiz-adv-x="275" d="M274 -16h-47l-228 712h47z" />
<glyph unicode="]" horiz-adv-x="257" d="M40 -194v58h101v768h-101v58h177v-884h-177z" />
<glyph unicode="^" horiz-adv-x="496" d="M484 328h-63l-174 292l-175 -292h-60l220 368h32z" />
<glyph unicode="_" horiz-adv-x="550" d="M550 -146h-550v46h550v-46z" />
<glyph unicode="`" horiz-adv-x="201" d="M190 719h-28l-151 177h126z" />
<glyph unicode="a" horiz-adv-x="445" d="M439 58q-41 -68 -107 -68q-25 0 -38 25q-12 19 -12 48q-26 -22 -40.5 -34.5t-18.5 -14.5q-38 -24 -84 -24q-49 0 -78 32t-29 83q0 78 85 127q33 19 165 66v28q0 113 -81 113q-68 0 -68 -70q0 -61 -41 -61q-19 0 -31.5 15.5t-12.5 38.5q0 44 50 76q49 31 119 31 q148 0 148 -122v-260q0 -35 23 -35q26 0 51 40v-34zM282 268q-167 -59 -167 -139q0 -33 20.5 -58t47.5 -25q37 0 99 50v172z" />
<glyph unicode="b" horiz-adv-x="506" d="M468 264q0 -112 -68 -194q-68 -80 -165 -80q-100 0 -161 55v505q0 46 -4 57q-5 18 -26 18q-11 0 -41 -8l-7 18l137 61h24v-322q19 38 62 67q43 28 82 28q72 0 119 -60q48 -59 48 -145zM381 235q0 68 -36 116t-86 48q-28 0 -57.5 -16.5t-44.5 -39.5v-268q45 -47 95 -47 q57 0 93 58t36 149z" />
<glyph unicode="c" horiz-adv-x="450" d="M421 174q-21 -88 -70.5 -136t-121.5 -48q-82 0 -140 66q-57 67 -57 162q0 103 63 177q65 74 154 74q71 0 115 -31q46 -31 46 -78q0 -21 -17 -36t-38 -15q-22 0 -35.5 15.5t-13.5 35.5q0 75 -70 75q-27 0 -49.5 -12t-38.5 -33.5t-24.5 -50.5t-8.5 -62q0 -92 40 -154 q40 -63 106 -63q93 0 141 120z" />
<glyph unicode="d" horiz-adv-x="510" d="M511 53l-140 -63h-24v55q-61 -55 -138 -55q-73 0 -125 69q-52 70 -52 165q0 94 65 170q66 75 155 75q53 0 95 -42v123q0 46 -4 57q-5 18 -26 18q-11 0 -41 -8l-7 18l137 61h24v-560q0 -45 9 -61t33 -16q17 0 33 8zM347 314q0 52 -33 88q-32 33 -71 33q-51 0 -85 -52 t-34 -133q0 -87 38 -149q39 -61 94 -61q52 0 91 47v227z" />
<glyph unicode="e" horiz-adv-x="462" d="M435 161q-18 -72 -76 -121q-59 -50 -122 -50q-85 0 -145 65q-60 66 -60 158q0 112 57 184t149 72q80 0 133 -54q53 -53 53 -131h-312q0 -95 42 -159q42 -65 106 -65q53 0 100 30q47 32 57 74zM320 308q0 52 -32 90q-31 37 -76 37q-38 0 -67 -38t-33 -89h208z" />
<glyph unicode="f" horiz-adv-x="292" d="M409 615q0 -39 -41 -39q-31 0 -53 43t-57 43q-13 0 -25.5 -7t-22 -19t-15.5 -27.5t-6 -32.5v-117h112v-34h-112v-318q0 -51 14 -70t58 -19v-18h-227v18q44 0 59 21q13 17 13 68v318h-88v34h88v69q0 69 45 119q46 49 111 49q147 0 147 -81z" />
<glyph unicode="g" horiz-adv-x="500" d="M474 -36q0 -41 -17 -73.5t-49.5 -55t-78.5 -35t-103 -12.5q-206 0 -206 94q0 34 31 69q7 8 22 23t40 37q-55 19 -55 56q0 14 6.5 29t18 28.5t27 25t33.5 18.5q-90 42 -90 136q0 68 53 116q53 49 131 49q85 0 118 -33h119v-38h-79q27 -42 27 -89q0 -71 -54 -116 q-55 -44 -140 -44q-31 0 -61 10q-29 -26 -29 -53q0 -30 53 -32l155 -7q128 -6 128 -103zM332 286q0 67 -31 113t-74 46q-81 0 -81 -124q0 -32 7 -59t20 -46.5t30.5 -31t38.5 -11.5q36 0 63 33t27 80zM436 -69q0 59 -104 59q-64 0 -112 3.5t-82 10.5q-38 -32 -38 -78 q0 -33 40 -54q43 -24 118 -24q77 0 131 26q47 26 47 57z" />
<glyph unicode="h" horiz-adv-x="520" d="M506 0h-227v18q44 0 59 21q13 17 13 68v208q0 92 -67 92q-56 0 -117 -66v-234q0 -51 14 -70t58 -19v-18h-227v18q44 0 59 21q13 17 13 68v443q0 46 -4 57q-5 18 -26 18q-11 0 -41 -8l-7 18l137 61h24v-320q75 93 162 93q44 0 74 -41q31 -40 31 -98v-223q0 -51 14 -70 t58 -19v-18z" />
<glyph unicode="i" horiz-adv-x="278" d="M192 650q0 -19 -14 -32.5t-34 -13.5t-34 13.5t-14 32.5t14 32.5t34 13.5t34 -13.5t14 -32.5zM258 0h-227v18q44 0 59 21q13 17 13 68v216q0 46 -4 57q-5 18 -26 18q-11 0 -41 -8l-7 18l137 61h24v-362q0 -51 14 -70t58 -19v-18z" />
<glyph unicode="j" horiz-adv-x="278" d="M192 650q0 -19 -14 -32.5t-34 -13.5t-34 13.5t-14 32.5t14 32.5t34 13.5t34 -13.5t14 -32.5zM186 0q0 -132 -44 -178q-33 -34 -123 -34q-37 0 -59.5 16t-22.5 39q0 39 43 39q18 0 38 -30q21 -30 42 -30q43 0 43 78v423q0 46 -4 57q-5 18 -26 18q-11 0 -41 -8l-7 18 l137 61h24v-469z" />
<glyph unicode="k" horiz-adv-x="510" d="M525 0h-227v18q30 0 30 23q0 15 -37 61l-120 150v-145q0 -51 14 -70t58 -19v-18h-227v18q44 0 59 21q13 17 13 68v443q0 46 -4 57q-5 18 -26 18q-11 0 -41 -8l-7 18l137 61h24v-435l111 101l36 34t18 29q0 16 -36 16v18h190v-18q-45 0 -76 -14q-27 -13 -83 -61l-84 -73 l136 -172q25 -31 44 -51.5t33 -31.5q29 -20 65 -20v-18z" />
<glyph unicode="l" horiz-adv-x="277" d="M253 0h-227v18q44 0 59 21q13 17 13 68v443q0 46 -4 57q-5 18 -26 18q-11 0 -41 -8l-7 18l137 61h24v-589q0 -51 14 -70t58 -19v-18z" />
<glyph unicode="m" horiz-adv-x="805" d="M797 0h-227v18q44 0 59 21q13 17 13 68v205q0 39 -22 67t-53 28q-34 0 -68.5 -19t-50.5 -46v-235q0 -51 14 -70t58 -19v-18h-227v18q44 0 59 21q13 17 13 68v205q0 19 -6 36.5t-16.5 30.5t-24 20.5t-28.5 7.5q-31 0 -65.5 -19t-53.5 -46v-235q0 -51 14 -70t58 -19v-18 h-227v18q44 0 59 21q13 17 13 68v216q0 46 -4 57q-5 18 -26 18q-11 0 -41 -8l-7 18l137 61h24v-95q35 41 77 67q46 28 83 28q40 0 74 -28q34 -29 42 -69q20 39 69 68t95 29q47 0 80 -43q34 -41 34 -101v-218q0 -51 14 -70t58 -19v-18z" />
<glyph unicode="n" horiz-adv-x="518" d="M510 0h-227v18q44 0 59 21q13 17 13 68v208q0 92 -67 92q-56 0 -117 -66v-234q0 -51 14 -70t58 -19v-18h-227v18q44 0 59 21q13 17 13 68v216q0 46 -4 57q-5 18 -26 18q-11 0 -41 -8l-7 18l137 61h24v-93q75 93 162 93q44 0 74 -41q31 -40 31 -98v-223q0 -51 14 -70 t58 -19v-18z" />
<glyph unicode="o" horiz-adv-x="506" d="M474 243q0 -107 -63 -180t-158 -73t-158 68q-63 67 -63 166q0 103 63 174t158 71t158 -66q63 -65 63 -160zM381 196q0 239 -148 239q-43 0 -76 -50q-32 -50 -32 -119q0 -103 38 -171q41 -71 106 -71q48 0 80 50q32 52 32 122z" />
<glyph unicode="p" horiz-adv-x="516" d="M484 253q0 -117 -55 -188q-56 -75 -149 -75q-65 0 -112 34v-111q0 -51 14 -70t58 -19v-18h-227v18q44 0 58 19.5t14 69.5v410q0 46 -4 57q-5 18 -26 18q-11 0 -41 -8l-7 18l137 61h24v-103q72 103 152 103q73 0 118 -63q46 -61 46 -153zM392 205q0 100 -31 152 q-29 50 -78 50q-65 0 -115 -74v-209q0 -42 31.5 -71t80.5 -29q47 0 79 50q33 51 33 131z" />
<glyph unicode="q" horiz-adv-x="512" d="M503 -194h-227v18q44 0 58 19.5t14 69.5v159q-67 -82 -149 -82q-69 0 -118 63q-49 64 -49 154q0 108 66 185q68 77 162 77q66 0 88 -34l63 34h20v-556q0 -51 14 -70t58 -19v-18zM348 348q0 33 -25 58q-29 29 -74 29q-54 0 -92 -53t-38 -127q0 -81 36 -138t87 -57 q36 0 67 19q28 16 39 37v232z" />
<glyph unicode="r" horiz-adv-x="344" d="M353 414q0 -45 -48 -45q-20 0 -38 15t-31 15q-27 0 -67 -72v-220q0 -51 14 -70t58 -19v-18h-227v18q44 0 59 21q13 17 13 68v216q0 46 -4 57q-5 18 -26 18q-11 0 -41 -8l-7 18l137 61h24v-96q58 96 119 96q27 0 46 -16t19 -39z" />
<glyph unicode="s" horiz-adv-x="402" d="M367 129q0 -61 -42 -100t-118 -39q-29 0 -68 11q-38 12 -46 12q-15 0 -21 -13h-18v159h18q7 -56 48 -96q40 -39 89 -39q32 0 54 19.5t22 46.5q0 46 -61 80q-28 16 -56 31t-57 30q-61 43 -61 110q0 57 37 92.5t98 35.5q28 0 61 -9q34 -9 43 -9q16 0 21 18h18v-153h-18 q-3 52 -37 87q-35 36 -80 36q-36 0 -58.5 -18t-22.5 -43q0 -46 66 -80q31 -15 61.5 -30t61.5 -31q66 -44 66 -108z" />
<glyph unicode="t" horiz-adv-x="290" d="M290 97q-32 -107 -128 -107q-82 0 -82 107v328h-72v24q47 0 83 48t48 120h24v-158h111v-34h-111v-328q0 -20 13 -34.5t32 -14.5q38 0 60 49h22z" />
<glyph unicode="u" horiz-adv-x="518" d="M518 53l-140 -63h-24v96q-22 -39 -64 -68q-40 -28 -78 -28q-55 0 -94 42q-38 43 -38 101v229q0 46 -15 62.5t-57 16.5v18h155v-326q0 -35 27 -59t65 -24q25 0 54 21.5t45 52.5v238q0 46 -15 62.5t-57 16.5v18h155v-323q0 -45 9 -61t33 -16q17 0 33 8z" />
<glyph unicode="v" horiz-adv-x="494" d="M485 441q-38 0 -63 -60l-163 -391h-24l-163 381q-18 42 -32.5 56t-39.5 14v18h208v-18q-53 0 -53 -29q0 -19 15 -56l100 -244l104 254q13 30 13 56q0 19 -57 19v18h155v-18z" />
<glyph unicode="w" horiz-adv-x="753" d="M753 441q-44 0 -68 -25q-19 -20 -36 -68l-132 -358h-24l-119 308l-119 -308h-24l-139 354q-13 34 -23 54t-17 28q-14 15 -52 15v18h200v-18q-39 0 -39 -25q0 -23 18 -68l90 -224l86 220l-10 26q-8 23 -29 44q-27 27 -60 27v18h232v-18q-63 0 -63 -33q0 -17 17 -60 l90 -224l75 214q20 58 20 72q0 31 -44 31v18h170v-18z" />
<glyph unicode="x" horiz-adv-x="503" d="M497 0h-225l1 18q47 0 47 29q0 11 -29 55l-66 101l-89 -115q-17 -23 -17 -44q0 -26 42 -26v-18h-149v18q29 0 72 58l119 157l-92 147q-37 61 -103 61v18h216v-18q-31 0 -32 -22q-1 -11 19 -44l45 -71l40 56q32 46 32 61q0 20 -40 20v18h160v-18q-27 0 -48 -15 q-26 -18 -66 -72l-59 -79l127 -188q46 -69 95 -69v-18z" />
<glyph unicode="y" horiz-adv-x="514" d="M497 441q-28 0 -41 -18q-11 -14 -30 -61l-185 -452q-22 -54 -61.5 -88t-79.5 -34q-27 0 -46.5 14.5t-20.5 34.5q-2 51 51 51q20 0 35 -9t31 -9q31 0 66 83l29 70l-143 300q-55 118 -102 118v18h211v-18q-49 0 -49 -36q0 -13 35 -88l89 -188l95 234q14 34 14 50 q0 28 -47 28v18h149v-18z" />
<glyph unicode="z" horiz-adv-x="463" d="M440 441l-308 -407h195q40 0 60 15q27 19 33 97h18l-10 -146h-408v24l302 401h-165q-40 0 -57 -17q-23 -23 -24 -76h-18v127h382v-18z" />
<glyph unicode="{" horiz-adv-x="345" d="M233 -194q-17 0 -36 7.5t-34.5 22.5t-26 37.5t-10.5 52.5v182q0 25 -7.5 45.5t-19.5 34.5t-27.5 22t-31.5 9v58q16 1 31.5 9t27.5 21.5t19.5 32.5t7.5 43v187q0 30 10.5 52.5t26 37.5t34.5 22.5t36 7.5h72v-58h-47q-18 0 -29 -8t-17 -20t-8 -26.5t-2 -27.5v-181 q0 -32 -10.5 -53t-25 -34t-30 -19.5t-26.5 -8.5v-12q11 -1 26.5 -6.5t30 -18.5t25 -35.5t10.5 -57.5v-178q0 -14 2 -28.5t8 -26.5t17 -19.5t29 -7.5h47v-58h-72z" />
<glyph unicode="|" horiz-adv-x="178" d="M118 -194h-58v885h58v-885z" />
<glyph unicode="}" horiz-adv-x="345" d="M305 219q-16 -1 -31.5 -9t-28 -22t-20 -34.5t-7.5 -45.5v-182q0 -30 -10.5 -52.5t-26 -37.5t-34.5 -22.5t-36 -7.5h-71v58h46q18 0 29 7.5t17 19.5t8 26.5t2 28.5v178q0 35 10.5 57.5t25 35.5t30 18.5t26.5 6.5v12q-11 2 -26.5 8.5t-30 19.5t-25 34t-10.5 53v181 q0 13 -2 27.5t-8 26.5t-17 20t-29 8h-46v58h71q17 0 36 -7.5t34.5 -22.5t26 -37.5t10.5 -52.5v-187q0 -24 7.5 -43t20 -32.5t28 -21.5t31.5 -9v-58v0z" />
<glyph unicode="~" horiz-adv-x="398" d="M360 380q0 -36 -34 -55q-25 -16 -65 -16q-45 0 -94 20l-32 16q-20 9 -32 9q-41 0 -44 -36h-21q0 14 7 27q27 51 94 51q36 0 87 -22q54 -21 75 -21q35 0 37 27h22z" />
<glyph unicode="&#xa2;" horiz-adv-x="500" d="M445 175q-45 -185 -188 -185q-42 0 -82 21l-76 -205h-40l83 226q-83 68 -83 186q0 104 64 177q65 74 154 74h14.5t11.5 -1l79 212h40l-81 -219q97 -25 97 -101q0 -21 -17 -36t-38 -15q-22 0 -35.5 15.5t-13.5 35.5q0 34 -11 51l-115 -311q36 -36 82 -36q93 0 141 119z M290 432q-11 3 -26 3q-27 0 -49.5 -12t-38.5 -33.5t-24.5 -50.5t-8.5 -62q0 -81 37 -142z" />
<glyph unicode="&#xa3;" horiz-adv-x="530" d="M501 152q-8 -70 -44 -115q-42 -53 -110 -53q-90 0 -167 83q-35 -83 -96 -83q-26 0 -45 19.5t-19 47.5q0 35 25 58t64 23q8 0 22 -2.5t20 -2.5q2 19 3.5 38.5t1.5 41.5q0 31 -3 65.5t-8 72.5h-103v34h98q-6 60 -6 91q0 95 48 157q54 69 150 69q60 0 98 -35q32 -32 32 -66 q0 -16 -12 -29.5t-28 -13.5q-41 0 -42 61q-1 52 -63 52q-95 0 -95 -142q0 -25 3 -60.5t8 -83.5h136l1 -34h-134l-1 -48q-1 -48 -9.5 -92.5t-24.5 -87.5q87 -41 169 -41q91 0 114 80zM147 86q-23 14 -46 14q-49 0 -49 -43q0 -42 33 -42q44 0 62 71z" />
<glyph unicode="&#xa5;" horiz-adv-x="607" d="M607 662q-89 0 -128 -85l-25 -55h98v-38h-115l-46 -100h161v-38h-178l-23 -51v-187q0 -53 20.5 -71.5t74.5 -18.5v-18h-303v18q28 0 47 4t29.5 14t15 27.5t4.5 44.5v175l-27 63h-168v38h151l-43 100h-108v38h92l-28 65q-32 75 -108 75v18h296v-18q-77 0 -77 -39 q0 -16 14 -55l18 -46h154l24 56q9 21 9 38q0 46 -70 46v18h239v-18zM388 484h-122l58 -147z" />
<glyph unicode="&#xa8;" horiz-adv-x="285" d="M107 800q0 -19 -14 -32.5t-34 -13.5t-34 13.5t-14 32.5t14 32.5t34 13.5t34 -13.5t14 -32.5zM283 800q0 -19 -14 -32.5t-34 -13.5t-34 13.5t-14 32.5t14 32.5t34 13.5t34 -13.5t14 -32.5z" />
<glyph unicode="&#xa9;" horiz-adv-x="760" d="M737 341q0 -148 -105 -253q-104 -104 -252 -104q-147 0 -253 104q-104 106 -104 253t104 251q106 104 253 104q148 0 252 -104q105 -104 105 -251zM706 341q0 134 -96 229q-95 95 -230 95q-134 0 -231 -95q-95 -95 -95 -229q0 -135 96 -231q97 -95 230 -95q136 0 230 94 q96 94 96 232zM576 216q-70 -103 -196 -103q-95 0 -163 64q-68 65 -68 158q0 107 67 171q68 65 175 65q35 0 91 -19q17 -5 18 -5q18 0 26 24h18l10 -142h-18q-14 55 -54 86.5t-97 31.5q-152 0 -152 -194q0 -206 168 -206q105 0 155 80z" />
<glyph unicode="&#xab;" horiz-adv-x="528" d="M478 0h-31l-199 230l199 229h31l-128 -229zM280 0h-31l-199 230l199 229h31l-128 -229z" />
<glyph unicode="&#xae;" horiz-adv-x="760" d="M737 341q0 -148 -105 -253q-104 -104 -252 -104q-147 0 -253 104q-104 106 -104 253t104 251q106 104 253 104q148 0 252 -104q105 -104 105 -251zM706 341q0 134 -96 229q-95 95 -230 95q-134 0 -231 -95q-95 -95 -95 -229q0 -135 96 -231q97 -95 230 -95q136 0 230 94 q96 94 96 232zM612 127h-101l-155 203h-40v-117q0 -68 63 -68v-18h-193v18q55 0 55 68v274q0 34 -9 46.5t-40 12.5v18h190q73 0 119 -26q51 -29 51 -86q0 -86 -117 -113l102 -139q24 -34 35 -43q13 -12 40 -12v-18zM466 445q0 42 -30 69.5t-75 27.5q-24 0 -45 -8v-181h10 q140 0 140 92z" />
<glyph unicode="&#xb4;" horiz-adv-x="201" d="M190 896l-151 -177h-28l53 177h126z" />
<glyph unicode="&#xb8;" horiz-adv-x="346" d="M262 -91q0 -59 -81 -59q-34 0 -83 13l-1 31q54 -12 83 -12q35 0 35 25q0 32 -59 26v61h25v-31q81 0 81 -54z" />
<glyph unicode="&#xbb;" horiz-adv-x="528" d="M478 230l-199 -230h-31l128 230l-128 229h31zM280 230l-199 -230h-31l128 230l-128 229h31z" />
<glyph unicode="&#x2c6;" horiz-adv-x="296" d="M296 739h-17l-131 107l-131 -107h-17l100 167h96z" />
<glyph unicode="&#x2da;" horiz-adv-x="196" d="M161 807q0 -26 -18 -44t-44 -18t-44 18t-18 44q0 25 18 43t44 18t44 -18t18 -43zM132 807q0 13 -10 23t-23 10q-33 0 -33 -33t33 -33q13 0 23 9.5t10 23.5z" />
<glyph unicode="&#x2dc;" horiz-adv-x="404" d="M356 830q0 -36 -33 -55q-28 -16 -66 -16q-46 0 -94 20q-8 4 -15.5 8t-15.5 8q-20 9 -33 9q-41 0 -44 -36h-21q0 13 8 27q27 51 93 51q35 0 88 -22q54 -21 74 -21q35 0 37 27h22z" />
<glyph unicode="&#x5b0;" d="M36 -139q0 -15 -10.5 -26t-25.5 -11q-16 0 -26.5 11t-10.5 26t10.5 26t25.5 11q16 0 26.5 -11t10.5 -26zM36 -234q0 -15 -10.5 -26t-25.5 -11q-16 0 -26.5 11t-10.5 26t10.5 26t25.5 11q16 0 26.5 -11t10.5 -26z" />
<glyph unicode="&#x5b1;" d="M-76 -139q0 -15 -10.5 -26t-25.5 -11q-16 0 -26.5 11t-10.5 26t10.5 26t25.5 11q16 0 26.5 -11t10.5 -26zM37 -138q0 -15 -10.5 -26t-25.5 -11q-16 0 -26.5 11t-10.5 26t10.5 26t25.5 11q16 0 26.5 -11t10.5 -26zM150 -234q0 -15 -10.5 -26t-25.5 -11q-16 0 -26.5 11 t-10.5 26t10.5 26t25.5 11q16 0 26.5 -11t10.5 -26zM150 -139q0 -15 -10.5 -26t-25.5 -11q-16 0 -26.5 11t-10.5 26t10.5 26t25.5 11q16 0 26.5 -11t10.5 -26zM-19 -234q0 -15 -10.5 -26t-25.5 -11q-16 0 -26.5 11t-10.5 26t10.5 26t25.5 11q16 0 26.5 -11t10.5 -26z" />
<glyph unicode="&#x5b3;" d="M-37 -143l3 -100h-47l3 100h-67v41h177v-41h-69zM143 -139q0 -15 -10.5 -26t-25.5 -11q-16 0 -26.5 11t-10.5 26t10.5 26t25.5 11q16 0 26.5 -11t10.5 -26zM143 -234q0 -15 -10.5 -26t-25.5 -11q-16 0 -26.5 11t-10.5 26t10.5 26t25.5 11q16 0 26.5 -11t10.5 -26z" />
<glyph unicode="&#x5b4;" d="M37 -139q0 -15 -10.5 -26t-25.5 -11q-16 0 -26.5 11t-10.5 26t10.5 26t25.5 11q16 0 26.5 -11t10.5 -26z" />
<glyph unicode="&#x5b5;" d="M95 -139q0 -15 -10.5 -26t-25.5 -11q-16 0 -26.5 11t-10.5 26t10.5 26t25.5 11q16 0 26.5 -11t10.5 -26zM-21 -139q0 -15 -10.5 -26t-25.5 -11q-16 0 -26.5 11t-10.5 26t10.5 26t25.5 11q16 0 26.5 -11t10.5 -26z" />
<glyph unicode="&#x5b6;" d="M37 -234q0 -15 -10.5 -26t-25.5 -11q-16 0 -26.5 11t-10.5 26t10.5 26t25.5 11q16 0 26.5 -11t10.5 -26zM95 -139q0 -15 -10.5 -26t-25.5 -11q-16 0 -26.5 11t-10.5 26t10.5 26t25.5 11q16 0 26.5 -11t10.5 -26zM-21 -139q0 -15 -10.5 -26t-25.5 -11q-16 0 -26.5 11 t-10.5 26t10.5 26t25.5 11q16 0 26.5 -11t10.5 -26z" />
<glyph unicode="&#x5b7;" d="M-89 -143v41h178v-41h-178z" />
<glyph unicode="&#x5b8;" d="M20 -143l3 -100h-47l3 100h-67v41h177v-41h-69z" />
<glyph unicode="&#x5b9;" d="M37 612q0 -15 -10.5 -26t-25.5 -11q-16 0 -26.5 11t-10.5 26t10.5 26t25.5 11q16 0 26.5 -11t10.5 -26z" />
<glyph unicode="&#x5bb;" d="M-28 -139q0 -15 -10.5 -26t-25.5 -11q-16 0 -26.5 11t-10.5 26t10.5 26t25.5 11q16 0 26.5 -11t10.5 -26zM36 -212q0 -15 -10.5 -26t-25.5 -11q-16 0 -26.5 11t-10.5 26t10.5 26t25.5 11q16 0 26.5 -11t10.5 -26zM101 -284q0 -15 -10.5 -26t-25.5 -11q-16 0 -26.5 11 t-10.5 26t10.5 26t25.5 11q16 0 26.5 -11t10.5 -26z" />
<glyph unicode="&#x5bc;" d="M33 271q0 -14 -9 -23.5t-23 -9.5t-23.5 9.5t-9.5 23.5t9.5 23t23.5 9t23 -9t9 -23z" />
<glyph unicode="&#x5bd;" d="M-14 -229v127h28v-127h-28z" />
<glyph unicode="&#x5be;" horiz-adv-x="313" d="M53 434v76h207v-76h-207z" />
<glyph unicode="&#x5bf;" d="M-88 595v41h177v-41h-177z" />
<glyph unicode="&#x5c0;" horiz-adv-x="168" d="M60 -130v747h48v-747h-48z" />
<glyph unicode="&#x5c1;" d="M33 641q0 -14 -9 -23.5t-23 -9.5t-23.5 9.5t-9.5 23.5t9.5 23t23.5 9t23 -9t9 -23z" />
<glyph unicode="&#x5c2;" d="M33 647q0 -14 -9 -23.5t-23 -9.5t-23.5 9.5t-9.5 23.5t9.5 23t23.5 9t23 -9t9 -23z" />
<glyph unicode="&#x5c3;" horiz-adv-x="275" d="M20 400v112h112v-112h-112zM20 0v112h112v-112h-112z" />
<glyph unicode="&#x5c5;" d="M-50 -347q0 21 14.5 35.5t35.5 14.5t35.5 -14.5t14.5 -35.5t-14.5 -35.5t-35.5 -14.5t-35.5 14.5t-14.5 35.5z" />
<glyph unicode="&#x5c6;" horiz-adv-x="449" d="M430 297q0 -84 -60 -145q-60 -60 -144 -60q-85 0 -146 60q-60 60 -60 145t60 144q62 59 146 59t144 -60q60 -59 60 -143z" />
<glyph unicode="&#x5c7;" d="M78 -145h-63l5 -49q1 -8 1 -11l1 -1v-65h-44v65q1 1 2 12q2 15 5 49h-63v43h156v-43z" />
<glyph unicode="&#x5d0;" horiz-adv-x="566" d="M519 510q3 -83 -16.5 -143t-44.5 -99q-29 -46 -68 -77q23 -35 45.5 -69t39.5 -61q20 -32 39 -61h-114q-26 41 -52 81q-23 35 -49 74.5t-49 72.5l-49 69q-14 -12 -27 -37t-23 -63t-15 -87.5t-1 -109.5h-95q-2 87 6.5 144.5t24 97.5t36.5 68t44 56q-22 29 -41 55t-34 46 q-18 23 -33 43h115q35 -45 69 -90q29 -38 61 -82.5t57 -79.5q25 20 43 55q16 29 28 77.5t9 119.5h94z" />
<glyph unicode="&#x5d1;" horiz-adv-x="536" d="M38 0v76h297v237q0 66 -27.5 99.5t-98.5 33.5q-40 0 -79.5 -14t-68.5 -38l-5 80q35 21 77 34.5t91 13.5q110 0 157.5 -53t47.5 -158v-235h76v-76h-467z" />
<glyph unicode="&#x5d2;" horiz-adv-x="353" d="M205 0q-2 11 -3 22q-1 10 -1.5 22t-0.5 25l-5 96h-3q-8 -12 -20 -32t-31 -45t-46 -52t-65 -52v94q36 31 65.5 62t50.5 59t32.5 52t11.5 42v32q0 25 -1.5 45t-8.5 34.5t-20 22.5t-37 8q-14 0 -21.5 -0.5t-16.5 -2.5l-3 76q10 2 26.5 3t31.5 1q52 0 81 -21t43 -51.5 t17 -65.5t3 -63v-211q0 -44 1 -66.5t3 -33.5h-83z" />
<glyph unicode="&#x5d3;" horiz-adv-x="466" d="M344 434v-434h-94v434h-223v76h407v-76h-90z" />
<glyph unicode="&#x5d4;" horiz-adv-x="579" d="M412 0v313q0 66 -42.5 99.5t-113.5 33.5q-20 0 -45 -3.5t-49.5 -10.5t-47 -16.5t-36.5 -21.5l-5 80q18 10 42 19t50.5 15.5t54 10t51.5 3.5q110 0 172.5 -53t62.5 -158v-311h-94zM78 0v260l94 30v-290h-94z" />
<glyph unicode="&#x5d5;" horiz-adv-x="254" d="M80 0v510h94v-510h-94z" />
<glyph unicode="&#x5d6;" horiz-adv-x="327" d="M266 434q-15 0 -26 -3t-23 -13q-19 -15 -23 -37t-1 -41l60 -340h-95l-53 304q-3 17 -2 32.5t10 34.5q10 20 20.5 32.5t32.5 19.5q4 2 5 6.5t-5 4.5h-126v76h247v-76h-21z" />
<glyph unicode="&#x5d7;" horiz-adv-x="586" d="M419 0v313q0 66 -42.5 99.5t-113.5 33.5q-18 0 -41.5 -3t-47.5 -9v-434h-94v474q18 10 42 19t50.5 15.5t54 10t51.5 3.5q110 0 172.5 -53t62.5 -158v-311h-94z" />
<glyph unicode="&#x5d8;" horiz-adv-x="573" d="M523 211q0 -50 -14.5 -91t-41.5 -70.5t-67 -45.5t-91 -16h-22q-103 0 -158.5 59.5t-55.5 159.5v303h94v-264q0 -32 6 -64.5t21 -58.5t40 -42.5t64 -16.5t64 16.5t40 42.5t21 58.5t6 64.5v119q0 38 -22 59.5t-63 21.5q-7 0 -19 -2t-23.5 -4.5t-20 -5.5t-9.5 -5v72 q3 3 13 6.5t22.5 6.5t25.5 5.5t22 2.5q55 0 88 -19t51 -45.5t23.5 -56t5.5 -50.5v-140z" />
<glyph unicode="&#x5d9;" horiz-adv-x="242" d="M74 187v323h94v-293z" />
<glyph unicode="&#x5da;" horiz-adv-x="516" d="M349 -210v523q0 66 -27.5 99.5t-98.5 33.5q-20 0 -45 -3.5t-49.5 -10.5t-47 -16.5t-36.5 -21.5l-5 80q18 10 42 19t50.5 15.5t54 10t51.5 3.5q110 0 157.5 -53t47.5 -158v-521h-94z" />
<glyph unicode="&#x5db;" horiz-adv-x="516" d="M470 252q0 -59 -20 -107.5t-56 -83t-86 -53.5t-109 -19q-28 0 -49 2t-38.5 5.5t-33 8.5t-33.5 11l7 88q32 -21 63.5 -30t79.5 -9q42 0 75 14t56.5 39.5t35.5 60t12 75.5q0 43 -13.5 78t-36.5 60t-55.5 38.5t-69.5 13.5q-25 0 -44 -2t-35.5 -6.5t-32.5 -12t-35 -18.5 l-7 88q24 8 59.5 17.5t94.5 9.5t109 -19t86 -54t56 -84.5t20 -110.5z" />
<glyph unicode="&#x5dc;" horiz-adv-x="480" d="M422 224q-2 -18 -7 -41.5t-14.5 -48t-24 -48t-36.5 -41.5q-19 -16 -40.5 -25t-43.5 -13.5t-42.5 -5.5t-37.5 -1v76q16 -1 32 1q14 2 28 4.5t25 9.5q18 10 30.5 25.5t20 33t11 35.5t5.5 34l11 115q3 32 5 52t3 31q1 12 2 17h-307v266h94v-190h313q-1 -24 -4 -50 q-2 -23 -5 -50.5t-5 -55.5z" />
<glyph unicode="&#x5dd;" horiz-adv-x="604" d="M80 0v510h94v-41h4q28 28 65 40.5t91 12.5q39 0 74.5 -15t62.5 -43t43.5 -69t16.5 -92v-303h-451zM437 264q0 90 -34.5 136t-93.5 46q-42 0 -67.5 -8t-40.5 -17q-18 -11 -27 -25v-320h263v188z" />
<glyph unicode="&#x5de;" horiz-adv-x="600" d="M530 159q0 -22 -5.5 -51.5t-23.5 -56t-51 -45t-88 -18.5q-16 0 -34.5 4t-38.5 12l-10 5v72q19 -6 35.5 -11.5t36.5 -5.5q40 0 62.5 21t22.5 60v123q0 31 -1.5 63t-12 57.5t-33 41.5t-64.5 16q-39 0 -67 -21.5t-47 -53t-28 -66.5t-9 -62v-243h-94v510h94v-100h2 q15 29 36 50t43 35t43.5 20.5t37.5 6.5q51 0 87.5 -15.5t60.5 -44t35 -69t11 -90.5v-144z" />
<glyph unicode="&#x5df;" horiz-adv-x="254" d="M80 -210v720h94v-720h-94z" />
<glyph unicode="&#x5e0;" horiz-adv-x="354" d="M40 0l20 76h127v248q0 25 -2 45t-8.5 34.5t-20 22.5t-36.5 8q-14 0 -21.5 -0.5t-16.5 -2.5l-3 77q10 2 26.5 3t31.5 1q52 0 81 -21t43 -51.5t17 -65.5t3 -63v-311h-241z" />
<glyph unicode="&#x5e1;" horiz-adv-x="566" d="M520 255q0 -55 -16 -103.5t-46.5 -85t-75 -57.5t-101.5 -21q-58 0 -101 21t-71.5 57.5t-43 85t-14.5 103.5v206q23 12 52.5 23.5t60.5 19.5t61.5 13t55.5 5q58 0 102.5 -20t75 -55.5t46 -84.5t15.5 -107zM420 255q0 36 -7.5 70.5t-24.5 61.5t-43.5 43t-63.5 16 q-73 0 -130 -36v-125q0 -34 4.5 -73t18.5 -72t39.5 -54.5t67.5 -21.5q41 0 68 17t42.5 44.5t22 61.5t6.5 68z" />
<glyph unicode="&#x5e2;" horiz-adv-x="529" d="M457 510v-19.5v-41v-54v-57.5v-51.5v-37.5q0 -27 -2.5 -60t-15 -66.5t-38 -64.5t-70.5 -52l-249 -117l-28 72l164 77l-180 472h103l154 -436q24 13 38 35t20.5 46.5t8 50t1.5 46.5q0 2 0.5 -0.5t0.5 -0.5t0.5 13t0.5 39.5t-0.5 78t-1.5 128.5h94z" />
<glyph unicode="&#x5e3;" horiz-adv-x="542" d="M384 -210v464q0 43 -13.5 78t-36.5 60t-55.5 38.5t-69.5 13.5h-27.5t-18 -0.5t-14 -1t-14.5 -1.5v-145h85v-72h-170v280q28 7 64 11.5t95 4.5q61 0 110.5 -19t85 -54t55 -84.5t19.5 -110.5v-462h-95z" />
<glyph unicode="&#x5e4;" horiz-adv-x="531" d="M485 252q0 -59 -20.5 -107.5t-56.5 -83t-86 -53.5t-108 -19q-56 0 -90.5 5.5t-63.5 9.5l7 77q33 -4 64 -10t79 -6q42 0 75 14t56.5 39.5t35.5 60t12 75.5q0 43 -13.5 78t-36.5 60t-55.5 38.5t-69.5 13.5q-33 0 -48 -0.5t-26 -2.5v-145h85v-72h-170v280q28 7 64 11.5 t95 4.5q61 0 111 -19t85.5 -54t55 -84.5t19.5 -110.5z" />
<glyph unicode="&#x5e5;" horiz-adv-x="547" d="M494 510v-21q0 -77 -20.5 -133t-44.5 -93q-28 -43 -64 -72l-30 -20v-381h-94v329q0 27 -1.5 47t-5.5 35.5t-10.5 29t-16.5 28.5l-174 251h115l141 -223q10 -17 20 -38l11 9q22 19 40 51q15 27 27.5 70t12.5 107v24h94z" />
<glyph unicode="&#x5e6;" horiz-adv-x="547" d="M494 510q3 -75 -13.5 -131.5t-38.5 -95.5t-44 -61t-29 -28l136 -194h-450v76h282l-304 434h115l175 -250q4 4 18 19t28 45t24 75.5t7 110.5h94z" />
<glyph unicode="&#x5e7;" horiz-adv-x="569" d="M511 224q-2 -18 -6.5 -41.5t-14 -48t-24.5 -48t-37 -41.5q-19 -16 -40.5 -25t-43.5 -13.5t-42.5 -5.5t-37.5 -1v76q16 -1 31 1q13 2 27.5 4.5t25.5 9.5q18 10 30.5 25.5t20.5 33t11.5 35.5t5.5 34l21 215h-378v76h477zM72 -210v500l94 30v-530h-94z" />
<glyph unicode="&#x5e8;" horiz-adv-x="506" d="M339 0v313q0 66 -27.5 99.5t-98.5 33.5q-20 0 -45 -3.5t-49.5 -10.5t-47 -16.5t-36.5 -21.5l-5 80q18 10 42 19t50.5 15.5t54 10t51.5 3.5q110 0 157.5 -53t47.5 -158v-311h-94z" />
<glyph unicode="&#x5e9;" horiz-adv-x="690" d="M617 216q0 -53 -23 -95t-59.5 -71.5t-83.5 -45.5t-95 -16h-22q-48 0 -95 16t-83.5 45t-59.5 71t-23 95v295h94v-264q0 -10 0.5 -19.5t1.5 -17.5q63 5 96 44.5t33 125.5v131h94v-109q0 -50 -9 -92t-32 -73.5t-63 -53t-102 -30.5q23 -43 64.5 -65.5t94.5 -22.5 q38 0 70.5 12.5t56.5 34.5t37.5 53t13.5 69v277h94v-294z" />
<glyph unicode="&#x5ea;" horiz-adv-x="614" d="M447 0v313q0 66 -27.5 99.5t-98.5 33.5q-42 0 -84 -6v-222q0 -28 -2.5 -66t-16.5 -72.5t-43 -58.5t-82 -24q-15 0 -31.5 1t-26.5 3l3 78q9 -2 16.5 -2.5t21.5 -0.5q33 0 50 29t17 79v235q-33 -11 -50 -25v82q35 21 97 33.5t146 12.5q110 0 157.5 -53t47.5 -158v-311h-94z " />
<glyph unicode="&#x5f0;" horiz-adv-x="466" d="M80 0v510h94v-510h-94zM292 0v510h94v-510h-94z" />
<glyph unicode="&#x5f1;" horiz-adv-x="432" d="M258 0v510h94v-510h-94zM80 187v323h94v-293z" />
<glyph unicode="&#x5f2;" horiz-adv-x="429" d="M80 187v323h94v-293zM255 187v323h94v-293z" />
<glyph unicode="&#x5f3;" horiz-adv-x="218" d="M151 501q0 -30 -97 -220h-14q36 103 36 160q0 26 -32 65l70 71q35 -44 37 -76z" />
<glyph unicode="&#x5f4;" horiz-adv-x="425" d="M338 500q0 -32 -97 -220h-14q18 53 27.5 93t9.5 67q0 21 -32 65l69 71q37 -44 37 -76zM166 499q0 -30 -98 -220h-13q36 106 36 160q0 22 -31 65l69 71q37 -46 37 -76z" />
<glyph unicode="&#x2013;" horiz-adv-x="373" d="M53 231v76h267v-76h-267z" />
<glyph unicode="&#x2014;" horiz-adv-x="473" d="M53 231v76h367v-76h-367z" />
<glyph unicode="&#x2018;" horiz-adv-x="169" d="M94 404l-72 203h92l52 -203h-72z" />
<glyph unicode="&#x2019;" horiz-adv-x="169" d="M93 404h-71l51 203h93z" />
<glyph unicode="&#x201a;" horiz-adv-x="283" d="M138 41q0 -30 -97 -220h-14q36 103 36 160q0 26 -32 65l70 71q35 -44 37 -76z" />
<glyph unicode="&#x201c;" horiz-adv-x="320" d="M94 404l-72 203h92l52 -203h-72zM245 404l-72 203h92l52 -203h-72z" />
<glyph unicode="&#x201d;" horiz-adv-x="322" d="M93 404h-71l51 203h93zM246 404h-71l51 203h93z" />
<glyph unicode="&#x201e;" horiz-adv-x="380" d="M338 120q0 -32 -97 -220h-14q18 53 27.5 93t9.5 67q0 21 -32 65l69 71q37 -44 37 -76zM166 119q0 -30 -98 -220h-13q36 106 36 160q0 22 -31 65l69 71q37 -46 37 -76z" />
<glyph unicode="&#x2022;" horiz-adv-x="449" d="M430 297q0 -84 -60 -145q-60 -60 -144 -60q-85 0 -146 60q-60 60 -60 145t60 144q62 59 146 59t144 -60q60 -59 60 -143z" />
<glyph unicode="&#x2026;" horiz-adv-x="565" d="M547 52q-18 -16 -34.5 -34t-32.5 -35q-17 17 -33.5 34.5t-33.5 34.5q18 17 35 34l34 34q31 -35 65 -68zM357 52q-18 -16 -34.5 -34t-32.5 -35q-17 17 -33.5 34.5t-33.5 34.5q18 17 35 34l34 34q31 -35 65 -68zM167 52q-18 -16 -34.5 -34t-32.5 -35q-17 17 -33.5 34.5 t-33.5 34.5q18 17 35 34l34 34q31 -35 65 -68z" />
<glyph unicode="&#x2039;" horiz-adv-x="330" d="M280 0h-31l-199 230l199 229h31l-128 -229z" />
<glyph unicode="&#x203a;" horiz-adv-x="330" d="M280 230l-199 -230h-31l128 230l-128 229h31z" />
<glyph unicode="&#x20ac;" horiz-adv-x="615" d="M589 52q-38 -32 -85 -50t-101 -18q-49 0 -93 15.5t-80 43t-62.5 65.5t-40.5 83h-98l34 60h54q-1 8 -1 12v8v10t1 13h-88l34 60h65q14 45 41 82.5t63 64.5t79.5 42t91.5 15q54 0 101 -18t85 -50l-31 -53q-31 29 -70.5 45t-84.5 16q-70 0 -126 -39t-85 -105h320l-36 -60 h-299q-1 -8 -1 -13v-10v-8t1 -12h275l-35 -60h-227q28 -67 84.5 -107t128.5 -40q45 0 84.5 16t70.5 45q7 -12 9.5 -17l4.5 -9t5.5 -8.5t11.5 -18.5z" />
<glyph unicode="&#x2122;" horiz-adv-x="1034" d="M1006 275h-203v18q37 0 50 22q10 16 10 56v234h-2l-153 -330h-17l-153 325h-2v-229q0 -41 12 -58q14 -20 48 -20v-18h-151v18q35 0 48 20q12 17 12 58v214q0 41 -12.5 59t-47.5 18v18h146l138 -288l133 288h144v-18q-38 0 -51 -22q-9 -15 -9 -55v-214q0 -41 12 -58 q13 -20 48 -20v-18zM410 578h-16q-10 44 -40 59q-22 11 -74 11h-22v-277q0 -40 9 -56q13 -22 52 -22v-18h-201v18q37 0 49 23q8 16 8 55v277h-18q-54 0 -75 -10q-31 -15 -39 -60h-19l12 102h365z" />
<glyph unicode="&#xe000;" horiz-adv-x="460" d="M0 460h460v-460h-460v460z" />
<glyph unicode="&#xfb01;" horiz-adv-x="538" d="M518 0h-484v18q44 0 59 21q13 17 13 68v318h-88v34h88v69q0 36 12.5 67t36 53.5t58 35t79.5 12.5q69 0 110 -19q47 -23 47 -62t-41 -39q-36 0 -49 22l-18 42q-15 22 -53 22q-43 0 -71 -25t-28 -61v-117h257v-352q0 -51 14 -70t58 -19v-18zM363 353q0 45 -4 56 q-4 16 -26 16h-144v-318q0 -51 14 -70t58 -19h30q44 0 59 21q13 17 13 68v246z" />
<glyph unicode="&#xfb02;" horiz-adv-x="587" d="M563 0h-227v18q44 0 59 21q13 17 13 68v443v31.5t-1 17.5q-9 -23 -39 -23q-31 0 -53 43t-57 43q-13 0 -25.5 -7t-22 -19t-15.5 -27.5t-6 -32.5v-117h112v-34h-112v-318q0 -51 14 -70t58 -19v-18h-227v18q44 0 59 21q13 17 13 68v318h-88v34h88v69q0 69 45 119 q46 49 111 49q90 0 127 -35l78 35h24v-589q0 -51 14 -70t58 -19v-18z" />
<glyph unicode="&#xfb1f;" horiz-adv-x="425" d="M122 -60v41h178v-41h-178zM80 187v323h94v-293zM251 187v323h94v-293z" />
<glyph unicode="&#xfb20;" horiz-adv-x="529" d="M461 237q0 -80 -36.5 -141t-94 -105.5t-128.5 -72t-140 -39.5l-13 77q6 1 14 3q7 2 16 3.5t20 5.5q23 7 59 20.5t66 33.5l-186 488h103l154 -434q12 11 24.5 26t23 34.5t17.5 44.5t7 56v273h94v-273v0z" />
<glyph unicode="&#xfb21;" horiz-adv-x="566" d="M390 191q23 -35 45.5 -69t39.5 -61q20 -32 39 -61h-114q-26 41 -52 81q-23 35 -49 74.5t-49 72.5q-9 13 -18 26.5t-20 27.5l-71 -282h-101l111 366q-22 29 -41 55t-34 46q-18 23 -33 43h115q31 -41 63 -83q27 -36 57.5 -78t55.5 -77l88 238h102z" />
<glyph unicode="&#xfb22;" horiz-adv-x="466" d="M344 434v-434h-94v434h-223v76h407v-76h-90z" />
<glyph unicode="&#xfb23;" horiz-adv-x="579" d="M412 0v313q0 66 -42.5 99.5t-113.5 33.5q-20 0 -45 -3.5t-49.5 -10.5t-47 -16.5t-36.5 -21.5l-5 80q18 10 42 19t50.5 15.5t54 10t51.5 3.5q110 0 172.5 -53t62.5 -158v-311h-94zM78 0v260l94 30v-290h-94z" />
<glyph unicode="&#xfb24;" horiz-adv-x="516" d="M470 252q0 -59 -20 -107.5t-56 -83t-86 -53.5t-109 -19q-28 0 -49 2t-38.5 5.5t-33 8.5t-33.5 11l7 88q32 -21 63.5 -30t79.5 -9q42 0 75 14t56.5 39.5t35.5 60t12 75.5q0 43 -13.5 78t-36.5 60t-55.5 38.5t-69.5 13.5q-25 0 -44 -2t-35.5 -6.5t-32.5 -12t-35 -18.5 l-7 88q24 8 59.5 17.5t94.5 9.5t109 -19t86 -54t56 -84.5t20 -110.5z" />
<glyph unicode="&#xfb25;" horiz-adv-x="480" d="M422 224q-2 -18 -7 -41.5t-14.5 -48t-24 -48t-36.5 -41.5q-19 -16 -40.5 -25t-43.5 -13.5t-42.5 -5.5t-37.5 -1v76q16 -1 32 1q14 2 28 4.5t25 9.5q18 10 30.5 25.5t20 33t11 35.5t5.5 34l11 113q3 33 -4.5 53t-20 31t-27.5 14.5t-26 3.5h-219v266h94v-190h125 q43 0 76.5 -14t56 -36.5t33.5 -50t8 -55.5z" />
<glyph unicode="&#xfb26;" horiz-adv-x="604" d="M80 0v510h94v-41h4q28 28 65 40.5t91 12.5q39 0 74.5 -15t62.5 -43t43.5 -69t16.5 -92v-303h-451zM437 264q0 90 -34.5 136t-93.5 46q-42 0 -67.5 -8t-40.5 -17q-18 -11 -27 -25v-320h263v188z" />
<glyph unicode="&#xfb27;" horiz-adv-x="506" d="M339 0v313q0 66 -27.5 99.5t-98.5 33.5q-20 0 -45 -3.5t-49.5 -10.5t-47 -16.5t-36.5 -21.5l-5 80q18 10 42 19t50.5 15.5t54 10t51.5 3.5q110 0 157.5 -53t47.5 -158v-311h-94z" />
<glyph unicode="&#xfb28;" horiz-adv-x="614" d="M447 0v313q0 66 -27.5 99.5t-98.5 33.5q-42 0 -84 -6v-285q0 -43 -15 -73.5t-37.5 -49.5t-47.5 -28t-44 -9q-15 0 -31.5 0.5t-26.5 2.5l3 76q9 -2 17 -1.5t22 -0.5q23 -1 36 6.5t20 21.5t8.5 33.5t1.5 42.5v243q-33 -11 -50 -25v82q35 21 97 33.5t146 12.5 q110 0 157.5 -53t47.5 -158v-311h-94z" />
<glyph unicode="&#xfb29;" horiz-adv-x="460" d="M428 209h-396v108h144v142h108v-142h144v-108z" />
<glyph unicode="&#xfb2a;" horiz-adv-x="690" d="M617 216q0 -53 -23 -95t-59.5 -71.5t-83.5 -45.5t-95 -16h-22q-48 0 -95 16t-83.5 45t-59.5 71t-23 95v295h94v-264q0 -10 0.5 -19.5t1.5 -17.5q63 5 96 44.5t33 125.5v131h94v-109q0 -50 -9 -92t-32 -73.5t-63 -53t-102 -30.5q23 -43 64.5 -65.5t94.5 -22.5 q38 0 70.5 12.5t56.5 34.5t37.5 53t13.5 69v277h94v-294zM607 619q0 -14 -9 -23.5t-23 -9.5t-23.5 9.5t-9.5 23.5t9.5 23t23.5 9t23 -9t9 -23z" />
<glyph unicode="&#xfb2b;" horiz-adv-x="690" d="M617 216q0 -53 -23 -95t-59.5 -71.5t-83.5 -45.5t-95 -16h-22q-48 0 -95 16t-83.5 45t-59.5 71t-23 95v295h94v-264q0 -10 0.5 -19.5t1.5 -17.5q63 5 96 44.5t33 125.5v131h94v-109q0 -50 -9 -92t-32 -73.5t-63 -53t-102 -30.5q23 -43 64.5 -65.5t94.5 -22.5 q38 0 70.5 12.5t56.5 34.5t37.5 53t13.5 69v277h94v-294zM153 620q0 -14 -9 -23.5t-23 -9.5t-23.5 9.5t-9.5 23.5t9.5 23t23.5 9t23 -9t9 -23z" />
<glyph unicode="&#xfb2c;" horiz-adv-x="690" d="M617 216q0 -53 -23 -95t-59.5 -71.5t-83.5 -45.5t-95 -16h-22q-48 0 -95 16t-83.5 45t-59.5 71t-23 95v295h94v-264q0 -10 0.5 -19.5t1.5 -17.5q63 5 96 44.5t33 125.5v131h94v-109q0 -50 -9 -92t-32 -73.5t-63 -53t-102 -30.5q23 -43 64.5 -65.5t94.5 -22.5 q38 0 70.5 12.5t56.5 34.5t37.5 53t13.5 69v277h94v-294zM557 619q0 -14 -9 -23.5t-23 -9.5t-23.5 9.5t-9.5 23.5t9.5 23t23.5 9t23 -9t9 -23zM470 234q0 -14 -9 -23.5t-23 -9.5t-23.5 9.5t-9.5 23.5t9.5 23t23.5 9t23 -9t9 -23z" />
<glyph unicode="&#xfb2d;" horiz-adv-x="690" d="M617 216q0 -53 -23 -95t-59.5 -71.5t-83.5 -45.5t-95 -16h-22q-48 0 -95 16t-83.5 45t-59.5 71t-23 95v295h94v-264q0 -10 0.5 -19.5t1.5 -17.5q63 5 96 44.5t33 125.5v131h94v-109q0 -50 -9 -92t-32 -73.5t-63 -53t-102 -30.5q23 -43 64.5 -65.5t94.5 -22.5 q38 0 70.5 12.5t56.5 34.5t37.5 53t13.5 69v277h94v-294zM470 234q0 -14 -9 -23.5t-23 -9.5t-23.5 9.5t-9.5 23.5t9.5 23t23.5 9t23 -9t9 -23zM201 620q0 -14 -9 -23.5t-23 -9.5t-23.5 9.5t-9.5 23.5t9.5 23t23.5 9t23 -9t9 -23z" />
<glyph unicode="&#xfb2e;" horiz-adv-x="566" d="M519 510q3 -83 -16.5 -143t-44.5 -99q-29 -46 -68 -77q23 -35 45.5 -69t39.5 -61q20 -32 39 -61h-114q-26 41 -52 81q-23 35 -49 74.5t-49 72.5l-49 69q-14 -12 -27 -37t-23 -63t-15 -87.5t-1 -109.5h-95q-2 87 6.5 144.5t24 97.5t36.5 68t44 56q-22 29 -41 55t-34 46 q-18 23 -33 43h115q35 -45 69 -90q29 -38 61 -82.5t57 -79.5q25 20 43 55q16 29 28 77.5t9 119.5h94zM191 -143v41h178v-41h-178z" />
<glyph unicode="&#xfb2f;" horiz-adv-x="566" d="M519 510q3 -83 -16.5 -143t-44.5 -99q-29 -46 -68 -77q23 -35 45.5 -69t39.5 -61q20 -32 39 -61h-114q-26 41 -52 81q-23 35 -49 74.5t-49 72.5l-49 69q-14 -12 -27 -37t-23 -63t-15 -87.5t-1 -109.5h-95q-2 87 6.5 144.5t24 97.5t36.5 68t44 56q-22 29 -41 55t-34 46 q-18 23 -33 43h115q35 -45 69 -90q29 -38 61 -82.5t57 -79.5q25 20 43 55q16 29 28 77.5t9 119.5h94zM300 -143l3 -100h-47l3 100h-67v41h177v-41h-69z" />
<glyph unicode="&#xfb30;" horiz-adv-x="566" d="M519 510q3 -83 -16.5 -143t-44.5 -99q-29 -46 -68 -77q23 -35 45.5 -69t39.5 -61q20 -32 39 -61h-114q-26 41 -52 81q-23 35 -49 74.5t-49 72.5l-49 69q-14 -12 -27 -37t-23 -63t-15 -87.5t-1 -109.5h-95q-2 87 6.5 144.5t24 97.5t36.5 68t44 56q-22 29 -41 55t-34 46 q-18 23 -33 43h115q35 -45 69 -90q29 -38 61 -82.5t57 -79.5q25 20 43 55q16 29 28 77.5t9 119.5h94zM313 -116q0 -14 -9 -23.5t-23 -9.5t-23.5 9.5t-9.5 23.5t9.5 23t23.5 9t23 -9t9 -23z" />
<glyph unicode="&#xfb31;" horiz-adv-x="536" d="M38 0v76h297v237q0 66 -27.5 99.5t-98.5 33.5q-40 0 -79.5 -14t-68.5 -38l-5 80q35 21 77 34.5t91 13.5q110 0 157.5 -53t47.5 -158v-235h76v-76h-467zM242 262q0 -14 -9 -23.5t-23 -9.5t-23.5 9.5t-9.5 23.5t9.5 23t23.5 9t23 -9t9 -23z" />
<glyph unicode="&#xfb32;" horiz-adv-x="353" d="M205 0q-2 11 -3 22q-1 10 -1.5 22t-0.5 25l-5 96h-3q-8 -12 -20 -32t-31 -45t-46 -52t-65 -52v94q36 31 65.5 62t50.5 59t32.5 52t11.5 42v32q0 25 -1.5 45t-8.5 34.5t-20 22.5t-37 8q-14 0 -21.5 -0.5t-16.5 -2.5l-3 76q10 2 26.5 3t31.5 1q52 0 81 -21t43 -51.5 t17 -65.5t3 -63v-211q0 -44 1 -66.5t3 -33.5h-83zM142 275q0 -14 -9 -23.5t-23 -9.5t-23.5 9.5t-9.5 23.5t9.5 23t23.5 9t23 -9t9 -23z" />
<glyph unicode="&#xfb33;" horiz-adv-x="466" d="M344 434v-434h-94v434h-223v76h407v-76h-90zM180 257q0 -14 -9 -23.5t-23 -9.5t-23.5 9.5t-9.5 23.5t9.5 23t23.5 9t23 -9t9 -23z" />
<glyph unicode="&#xfb34;" horiz-adv-x="579" d="M412 0v313q0 66 -42.5 99.5t-113.5 33.5q-20 0 -45 -3.5t-49.5 -10.5t-47 -16.5t-36.5 -21.5l-5 80q18 10 42 19t50.5 15.5t54 10t51.5 3.5q110 0 172.5 -53t62.5 -158v-311h-94zM78 0v260l94 30v-290h-94zM321 246q0 -14 -9 -23.5t-23 -9.5t-23.5 9.5t-9.5 23.5t9.5 23 t23.5 9t23 -9t9 -23z" />
<glyph unicode="&#xfb35;" horiz-adv-x="254" d="M80 0v510h94v-510h-94zM45 256q0 -14 -9 -23.5t-23 -9.5t-23.5 9.5t-9.5 23.5t9.5 23t23.5 9t23 -9t9 -23z" />
<glyph unicode="&#xfb36;" horiz-adv-x="327" d="M266 434q-15 0 -26 -3t-23 -13q-19 -15 -23 -37t-1 -41l60 -340h-95l-53 304q-3 17 -2 32.5t10 34.5q10 20 20.5 32.5t32.5 19.5q4 2 5 6.5t-5 4.5h-126v76h247v-76h-21zM88 212q0 -14 -9 -23.5t-23 -9.5t-23.5 9.5t-9.5 23.5t9.5 23t23.5 9t23 -9t9 -23z" />
<glyph unicode="&#xfb38;" horiz-adv-x="573" d="M523 211q0 -50 -14.5 -91t-41.5 -70.5t-67 -45.5t-91 -16h-22q-103 0 -158.5 59.5t-55.5 159.5v303h94v-264q0 -32 6 -64.5t21 -58.5t40 -42.5t64 -16.5t64 16.5t40 42.5t21 58.5t6 64.5v119q0 38 -22 59.5t-63 21.5q-7 0 -19 -2t-23.5 -4.5t-20 -5.5t-9.5 -5v72 q3 3 13 6.5t22.5 6.5t25.5 5.5t22 2.5q55 0 88 -19t51 -45.5t23.5 -56t5.5 -50.5v-140zM327 268q0 -14 -9 -23.5t-23 -9.5t-23.5 9.5t-9.5 23.5t9.5 23t23.5 9t23 -9t9 -23z" />
<glyph unicode="&#xfb39;" horiz-adv-x="242" d="M74 187v323h94v-293zM39 343q0 -14 -9 -23.5t-23 -9.5t-23.5 9.5t-9.5 23.5t9.5 23t23.5 9t23 -9t9 -23z" />
<glyph unicode="&#xfb3a;" horiz-adv-x="516" d="M349 -210v523q0 66 -27.5 99.5t-98.5 33.5q-20 0 -45 -3.5t-49.5 -10.5t-47 -16.5t-36.5 -21.5l-5 80q18 10 42 19t50.5 15.5t54 10t51.5 3.5q110 0 157.5 -53t47.5 -158v-521h-94zM240 261q0 -14 -9 -23.5t-23 -9.5t-23.5 9.5t-9.5 23.5t9.5 23t23.5 9t23 -9t9 -23z" />
<glyph unicode="&#xfb3b;" horiz-adv-x="516" d="M470 252q0 -59 -20 -107.5t-56 -83t-86 -53.5t-109 -19q-28 0 -49 2t-38.5 5.5t-33 8.5t-33.5 11l7 88q32 -21 63.5 -30t79.5 -9q42 0 75 14t56.5 39.5t35.5 60t12 75.5q0 43 -13.5 78t-36.5 60t-55.5 38.5t-69.5 13.5q-25 0 -44 -2t-35.5 -6.5t-32.5 -12t-35 -18.5 l-7 88q24 8 59.5 17.5t94.5 9.5t109 -19t86 -54t56 -84.5t20 -110.5zM241 266q0 -14 -9 -23.5t-23 -9.5t-23.5 9.5t-9.5 23.5t9.5 23t23.5 9t23 -9t9 -23z" />
<glyph unicode="&#xfb3c;" horiz-adv-x="480" d="M422 224q-2 -18 -7 -41.5t-14.5 -48t-24 -48t-36.5 -41.5q-19 -16 -40.5 -25t-43.5 -13.5t-42.5 -5.5t-37.5 -1v76q16 -1 32 1q14 2 28 4.5t25 9.5q18 10 30.5 25.5t20 33t11 35.5t5.5 34l11 115q3 32 5 52t3 31q1 12 2 17h-307v266h94v-190h313q-1 -24 -4 -50 q-2 -23 -5 -50.5t-5 -55.5zM225 282q0 -14 -9 -23.5t-23 -9.5t-23.5 9.5t-9.5 23.5t9.5 23t23.5 9t23 -9t9 -23z" />
<glyph unicode="&#xfb3e;" horiz-adv-x="600" d="M530 159q0 -22 -5.5 -51.5t-23.5 -56t-51 -45t-88 -18.5q-16 0 -34.5 4t-38.5 12l-10 5v72q19 -6 35.5 -11.5t36.5 -5.5q40 0 62.5 21t22.5 60v123q0 31 -1.5 63t-12 57.5t-33 41.5t-64.5 16q-39 0 -67 -21.5t-47 -53t-28 -66.5t-9 -62v-243h-94v510h94v-100h2 q15 29 36 50t43 35t43.5 20.5t37.5 6.5q51 0 87.5 -15.5t60.5 -44t35 -69t11 -90.5v-144zM340 262q0 -14 -9 -23.5t-23 -9.5t-23.5 9.5t-9.5 23.5t9.5 23t23.5 9t23 -9t9 -23z" />
<glyph unicode="&#xfb40;" horiz-adv-x="354" d="M40 0l20 76h127v248q0 25 -2 45t-8.5 34.5t-20 22.5t-36.5 8q-14 0 -21.5 -0.5t-16.5 -2.5l-3 77q10 2 26.5 3t31.5 1q52 0 81 -21t43 -51.5t17 -65.5t3 -63v-311h-241zM135 259q0 -14 -9 -23.5t-23 -9.5t-23.5 9.5t-9.5 23.5t9.5 23t23.5 9t23 -9t9 -23z" />
<glyph unicode="&#xfb41;" horiz-adv-x="566" d="M520 255q0 -55 -16 -103.5t-46.5 -85t-75 -57.5t-101.5 -21q-58 0 -101 21t-71.5 57.5t-43 85t-14.5 103.5v206q23 12 52.5 23.5t60.5 19.5t61.5 13t55.5 5q58 0 102.5 -20t75 -55.5t46 -84.5t15.5 -107zM420 255q0 36 -7.5 70.5t-24.5 61.5t-43.5 43t-63.5 16 q-73 0 -130 -36v-125q0 -34 4.5 -73t18.5 -72t39.5 -54.5t67.5 -21.5q41 0 68 17t42.5 44.5t22 61.5t6.5 68zM309 266q0 -14 -9 -23.5t-23 -9.5t-23.5 9.5t-9.5 23.5t9.5 23t23.5 9t23 -9t9 -23z" />
<glyph unicode="&#xfb43;" horiz-adv-x="542" d="M384 -210v464q0 43 -13.5 78t-36.5 60t-55.5 38.5t-69.5 13.5h-27.5t-18 -0.5t-14 -1t-14.5 -1.5v-145h85v-72h-170v280q28 7 64 11.5t95 4.5q61 0 110.5 -19t85 -54t55 -84.5t19.5 -110.5v-462h-95zM341 263q0 -14 -9 -23.5t-23 -9.5t-23.5 9.5t-9.5 23.5t9.5 23t23.5 9 t23 -9t9 -23z" />
<glyph unicode="&#xfb44;" horiz-adv-x="531" d="M485 252q0 -59 -20.5 -107.5t-56.5 -83t-86 -53.5t-108 -19q-56 0 -90.5 5.5t-63.5 9.5l7 77q33 -4 64 -10t79 -6q42 0 75 14t56.5 39.5t35.5 60t12 75.5q0 43 -13.5 78t-36.5 60t-55.5 38.5t-69.5 13.5q-33 0 -48 -0.5t-26 -2.5v-145h85v-72h-170v280q28 7 64 11.5 t95 4.5q61 0 111 -19t85.5 -54t55 -84.5t19.5 -110.5zM345 263q0 -14 -9 -23.5t-23 -9.5t-23.5 9.5t-9.5 23.5t9.5 23t23.5 9t23 -9t9 -23z" />
<glyph unicode="&#xfb46;" horiz-adv-x="547" d="M494 510q3 -75 -13.5 -131.5t-38.5 -95.5t-44 -61t-29 -28l136 -194h-450v76h282l-304 434h115l175 -250q4 4 18 19t28 45t24 75.5t7 110.5h94zM207 162q0 -14 -9 -23.5t-23 -9.5t-23.5 9.5t-9.5 23.5t9.5 23t23.5 9t23 -9t9 -23z" />
<glyph unicode="&#xfb47;" horiz-adv-x="569" d="M511 224q-2 -18 -6.5 -41.5t-14 -48t-24.5 -48t-37 -41.5q-19 -16 -40.5 -25t-43.5 -13.5t-42.5 -5.5t-37.5 -1v76q16 -1 31 1q13 2 27.5 4.5t25.5 9.5q18 10 30.5 25.5t20.5 33t11.5 35.5t5.5 34l21 215h-378v76h477zM72 -210v500l94 30v-530h-94zM325 265 q0 -14 -9 -23.5t-23 -9.5t-23.5 9.5t-9.5 23.5t9.5 23t23.5 9t23 -9t9 -23z" />
<glyph unicode="&#xfb48;" horiz-adv-x="506" d="M339 0v313q0 66 -27.5 99.5t-98.5 33.5q-20 0 -45 -3.5t-49.5 -10.5t-47 -16.5t-36.5 -21.5l-5 80q18 10 42 19t50.5 15.5t54 10t51.5 3.5q110 0 157.5 -53t47.5 -158v-311h-94zM231 257q0 -14 -9 -23.5t-23 -9.5t-23.5 9.5t-9.5 23.5t9.5 23t23.5 9t23 -9t9 -23z" />
<glyph unicode="&#xfb49;" horiz-adv-x="690" d="M617 216q0 -53 -23 -95t-59.5 -71.5t-83.5 -45.5t-95 -16h-22q-48 0 -95 16t-83.5 45t-59.5 71t-23 95v295h94v-264q0 -10 0.5 -19.5t1.5 -17.5q63 5 96 44.5t33 125.5v131h94v-109q0 -50 -9 -92t-32 -73.5t-63 -53t-102 -30.5q23 -43 64.5 -65.5t94.5 -22.5 q38 0 70.5 12.5t56.5 34.5t37.5 53t13.5 69v277h94v-294zM470 234q0 -14 -9 -23.5t-23 -9.5t-23.5 9.5t-9.5 23.5t9.5 23t23.5 9t23 -9t9 -23z" />
<glyph unicode="&#xfb4a;" horiz-adv-x="614" d="M447 0v313q0 66 -27.5 99.5t-98.5 33.5q-42 0 -84 -6v-222q0 -28 -2.5 -66t-16.5 -72.5t-43 -58.5t-82 -24q-15 0 -31.5 1t-26.5 3l3 78q9 -2 16.5 -2.5t21.5 -0.5q33 0 50 29t17 79v235q-33 -11 -50 -25v82q35 21 97 33.5t146 12.5q110 0 157.5 -53t47.5 -158v-311h-94z M375 255q0 -14 -9 -23.5t-23 -9.5t-23.5 9.5t-9.5 23.5t9.5 23t23.5 9t23 -9t9 -23z" />
<glyph unicode="&#xfb4b;" horiz-adv-x="254" d="M80 0v510h94v-510h-94zM159 619q0 -14 -9 -23.5t-23 -9.5t-23.5 9.5t-9.5 23.5t9.5 23t23.5 9t23 -9t9 -23z" />
<glyph unicode="&#xfb4c;" horiz-adv-x="536" d="M38 0v76h297v237q0 66 -27.5 99.5t-98.5 33.5q-40 0 -79.5 -14t-68.5 -38l-5 80q35 21 77 34.5t91 13.5q110 0 157.5 -53t47.5 -158v-235h76v-76h-467zM162 568v41h177v-41h-177z" />
<glyph unicode="&#xfb4d;" horiz-adv-x="516" d="M470 252q0 -59 -20 -107.5t-56 -83t-86 -53.5t-109 -19q-28 0 -49 2t-38.5 5.5t-33 8.5t-33.5 11l7 88q32 -21 63.5 -30t79.5 -9q42 0 75 14t56.5 39.5t35.5 60t12 75.5q0 43 -13.5 78t-36.5 60t-55.5 38.5t-69.5 13.5q-25 0 -44 -2t-35.5 -6.5t-32.5 -12t-35 -18.5 l-7 88q24 8 59.5 17.5t94.5 9.5t109 -19t86 -54t56 -84.5t20 -110.5zM141 569v41h177v-41h-177z" />
<glyph unicode="&#xfb4e;" horiz-adv-x="531" d="M485 252q0 -59 -20.5 -107.5t-56.5 -83t-86 -53.5t-108 -19q-56 0 -90.5 5.5t-63.5 9.5l7 77q33 -4 64 -10t79 -6q42 0 75 14t56.5 39.5t35.5 60t12 75.5q0 43 -13.5 78t-36.5 60t-55.5 38.5t-69.5 13.5q-33 0 -48 -0.5t-26 -2.5v-145h85v-72h-170v280q28 7 64 11.5 t95 4.5q61 0 111 -19t85.5 -54t55 -84.5t19.5 -110.5zM143 568v41h177v-41h-177z" />
<glyph unicode="&#xfb4f;" horiz-adv-x="449" d="M430 297q0 -84 -60 -145q-60 -60 -144 -60q-85 0 -146 60q-60 60 -60 145t60 144q62 59 146 59t144 -60q60 -59 60 -143z" />
<glyph d="M-50 689q0 21 14.5 35.5t35.5 14.5t35.5 -14.5t14.5 -35.5t-14.5 -35.5t-35.5 -14.5t-35.5 14.5t-14.5 35.5z" />
</font>
</defs>
</svg>
