<?xml version="1.0" standalone="no"?>
<!DOCTYPE svg PUBLIC "-//W3C//DTD SVG 1.1//EN" "http://www.w3.org/Graphics/SVG/1.1/DTD/svg11.dtd" >
<svg xmlns="http://www.w3.org/2000/svg">
<metadata></metadata>
<defs>
<font id="mfw_protocolharel_lightRg" horiz-adv-x="0" >
<font-face units-per-em="1000" ascent="800" descent="-200" />
<missing-glyph horiz-adv-x="250" />
<glyph horiz-adv-x="1000" />
<glyph horiz-adv-x="1000" />
<glyph unicode="&#xd;" horiz-adv-x="250" />
<glyph unicode=" "  horiz-adv-x="250" />
<glyph unicode="&#x09;" horiz-adv-x="250" />
<glyph unicode="&#xa0;" horiz-adv-x="250" />
<glyph unicode="!" horiz-adv-x="216" d="M128 207h-45l-13 401h71zM65 0v85h81v-85h-81z" />
<glyph unicode="&#x22;" horiz-adv-x="319" d="M232 404h-40l43 203h59zM82 404h-40l43 203h59z" />
<glyph unicode="#" horiz-adv-x="556" d="M409 385l-23 -154h98v-38h-104l-29 -193h-45l29 193h-149l-29 -193h-45l29 193h-97v38h103l23 154h-98v38h104l29 193h45l-29 -193h149l29 193h45l-29 -193h98v-38h-104zM215 385l-23 -154h149l23 154h-149z" />
<glyph unicode="$" horiz-adv-x="384" d="M321 138q0 -57 -33 -93.5t-96 -47.5v-75h-12v73h-24q-53 0 -95 16l4 37q19 -10 41 -14t48 -4h26v214l-34 17q-42 22 -67 50.5t-25 77.5q0 51 33.5 85t92.5 44v75h12v-74q33 -1 57 -4t46 -10l-5 -36q-35 15 -75 15h-23v-194l50 -29q39 -23 59 -49.5t20 -73.5zM180 485 q-43 -17 -61.5 -38t-18.5 -56q0 -32 22.5 -53t57.5 -44v191zM274 133q0 19 -5 33.5t-15.5 26.5t-26 23t-35.5 22v-205q45 14 63.5 41.5t18.5 58.5z" />
<glyph unicode="%" horiz-adv-x="701" d="M623 128q0 -70 -24 -106.5t-69 -36.5t-70 35.5t-25 106.5t25 107.5t70 36.5t69 -36t24 -107zM228 -22h-36l303 549h36zM295 404q0 -70 -24.5 -107t-69.5 -37t-69.5 36t-24.5 107t24.5 107.5t69.5 36.5t69.5 -36t24.5 -107zM586 131q0 45 -13.5 71.5t-42.5 26.5t-43.5 -27 t-14.5 -74q0 -45 13.5 -72.5t42.5 -27.5t43.5 27.5t14.5 75.5zM257 407q0 45 -13.5 71.5t-42.5 26.5t-43.5 -27.5t-14.5 -74.5q0 -45 14 -72t43 -27t43 27.5t14 75.5z" />
<glyph unicode="&#x26;" horiz-adv-x="680" d="M675 90q0 -29 -50 -71q-38 -32 -85 -32q-76 0 -153 83q-101 -83 -200 -83q-69 0 -109 37t-40 106q0 70 58 127q17 17 47 39t71 44q-32 96 -32 128q0 58 39 99q38 41 99 41q52 0 87 -29q36 -29 36 -79q0 -57 -45 -97q-29 -26 -96 -57q25 -50 54.5 -96t64.5 -90 q83 104 83 164q0 24 -18 33q-12 5 -40 8v18h195v-18q-32 -5 -45 -12q-23 -13 -40 -42q-5 -8 -10.5 -17.5t-11.5 -19.5q-5 -10 -11.5 -20t-13.5 -21t-15 -22.5t-16 -23.5t-16.5 -25t-18.5 -27q16 -32 57 -57q41 -26 76 -26q30 0 50 12q4 3 7.5 6t7.5 7q9 10 21 24zM394 504 q0 32 -19 54t-51 22q-70 0 -70 -78q0 -52 36 -128q104 59 104 130zM364 94q-16 19 -32 41.5t-33 48.5q-35 54 -72 126q-5 -4 -11 -8t-11 -8t-10 -7.5t-10 -7.5q-15 -12 -31 -30q-33 -38 -33 -87q0 -52 33 -88q35 -38 84 -38q59 0 126 58z" />
<glyph unicode="'" horiz-adv-x="169" d="M82 404h-40l43 203h59z" />
<glyph unicode="(" horiz-adv-x="331" d="M199 -149q-30 47 -56 95t-44.5 98.5t-29.5 103.5t-11 110q0 58 11 110.5t30 102.5t44.5 98t55.5 96h47q-24 -46 -47.5 -95t-41.5 -100t-29 -104t-11 -108t10.5 -108.5t28.5 -104.5t41 -99.5t49 -94.5h-47z" />
<glyph unicode=")" horiz-adv-x="331" d="M273 258q0 -57 -11 -110t-30 -103.5t-45 -98.5t-56 -95h-46q25 46 48.5 94.5t41 99.5t28 104.5t10.5 108.5t-11 108t-29 104t-41.5 100t-47.5 95h47q30 -48 55.5 -96t45 -98t30.5 -102.5t11 -110.5z" />
<glyph unicode="*" horiz-adv-x="484" d="M250 464l100 -126l-38 -27l-76 142l-77 -142l-37 27l103 126l-150 34l14 47l141 -64l-15 163h46l-14 -163l136 64l14 -47z" />
<glyph unicode="+" horiz-adv-x="424" d="M236 245v-116h-48v116h-119v48h119v122h48v-122h119v-48h-119z" />
<glyph unicode="," horiz-adv-x="190" d="M59 -106h-40l43 203h59z" />
<glyph unicode="-" horiz-adv-x="140" />
<glyph unicode="." horiz-adv-x="190" d="M36 0v86h81v-86h-81z" />
<glyph unicode="/" horiz-adv-x="298" d="M73 -14h-55l193 608h55z" />
<glyph unicode="0" horiz-adv-x="469" d="M418 268q0 -131 -47 -203t-136 -72q-91 0 -138 71t-47 202t47 203.5t138 72.5t137 -71.5t46 -202.5zM357 273q0 112 -31 168t-89 56q-60 0 -93.5 -59t-33.5 -174q0 -112 32.5 -169.5t90.5 -57.5q60 0 92 58.5t32 177.5z" />
<glyph unicode="1" horiz-adv-x="469" d="M215 0v483l-107 -53v48l127 61h43v-539h-63z" />
<glyph unicode="2" horiz-adv-x="469" d="M61 0q2 8 4.5 19t4.5 19q17 52 42.5 85.5t63.5 66.5q14 11 27.5 21.5t29.5 23.5q18 15 38.5 31t38 34.5t28.5 41t11 50.5q0 48 -29 76t-71 28q-33 0 -54.5 -14.5t-35.5 -36.5q-11 -17 -17.5 -35t-11.5 -37l-58 14q8 29 15 45.5t15 30.5q21 36 60 57t88 21q37 0 66.5 -11 t50.5 -31.5t32 -48t11 -60.5q0 -32 -10 -56.5t-29 -46.5q-10 -11 -20.5 -20.5t-22.5 -20.5l-26 -20t-27 -20q-48 -35 -85 -72t-66 -86h287v-48h-350z" />
<glyph unicode="3" horiz-adv-x="469" d="M414 149q0 -34 -12.5 -62.5t-35.5 -49.5t-55.5 -32.5t-71.5 -11.5q-57 0 -99.5 23t-83.5 79l47 30q35 -50 66.5 -69t70.5 -19q49 0 81.5 28.5t32.5 78.5q0 58 -37 87t-108 29h-26v45h27q63 0 96 24.5t33 75.5q0 44 -28 68t-72 24q-32 0 -58.5 -15t-57.5 -54l-45 31 q35 43 76 63t88 20q36 0 65 -10t49.5 -28t32 -42.5t11.5 -52.5q0 -37 -19 -70t-73 -55q30 -9 50.5 -23t33 -32t17.5 -38.5t5 -41.5z" />
<glyph unicode="4" horiz-adv-x="469" d="M340 133v-133h-63v133h-237v40l211 368h89v-362h88v-46h-88zM277 488l-179 -309h179v309z" />
<glyph unicode="5" horiz-adv-x="469" d="M410 183q0 -42 -13 -77t-36.5 -59.5t-57.5 -38.5t-76 -14q-106 0 -162 98l49 26q28 -45 54.5 -63t64.5 -18q52 0 84.5 39t32.5 109q0 62 -30.5 95.5t-79.5 33.5q-32 0 -61 -19t-47 -54l-53 11l20 283h274v-47h-220l-12 -165q30 22 56.5 28.5t49.5 6.5q37 0 67.5 -13 t51.5 -36.5t32.5 -55.5t11.5 -70z" />
<glyph unicode="6" horiz-adv-x="469" d="M414 172q0 -38 -13 -71t-36 -57t-56 -37.5t-72 -13.5q-43 0 -76.5 16t-57 46t-36 72t-12.5 95q0 75 15 134t43.5 100.5t70.5 63.5t96 22q27 0 52.5 -7t66.5 -27l-28 -41q-32 17 -51.5 23.5t-39.5 6.5q-41 0 -68.5 -18.5t-46.5 -48.5t-31 -69.5t-20 -81.5q23 18 41 29.5 t33.5 18t30 9t29.5 2.5q37 0 67.5 -12.5t52.5 -35t34 -52.5t12 -66zM354 174q0 56 -31 88.5t-80 32.5q-23 0 -43 -9t-36 -23t-29 -31t-22 -34q6 -81 38.5 -121t86.5 -40q51 0 83.5 36.5t32.5 100.5z" />
<glyph unicode="7" horiz-adv-x="469" d="M186 0h-69l215 488h-264v47h333v-31z" />
<glyph unicode="8" horiz-adv-x="469" d="M422 141q0 -32 -13.5 -59.5t-38 -47t-59 -30.5t-77.5 -11q-88 0 -138 40.5t-50 106.5q0 41 27.5 75t96.5 69q-30 18 -50 34t-32 31t-16.5 31t-4.5 34q0 27 12.5 50.5t35 40.5t54 27t69.5 10q37 0 67 -10t52 -27t34 -40t12 -50q0 -19 -5 -35t-17 -31.5t-32.5 -31 t-52.5 -33.5q36 -18 60.5 -35t39 -34t20.5 -35t6 -39zM343 409q0 42 -29.5 65t-77.5 23q-46 0 -77.5 -23.5t-31.5 -62.5q0 -26 11.5 -42.5t28.5 -27.5q8 -5 17 -10t17 -10q8 -4 17.5 -7.5t21.5 -8.5q58 23 80.5 46t22.5 58zM363 138q0 29 -15.5 52t-44.5 38 q-15 8 -30.5 14.5t-48.5 20.5q-64 -26 -91 -54t-27 -70q0 -47 37.5 -74.5t93.5 -27.5q54 0 90 27t36 74z" />
<glyph unicode="9" horiz-adv-x="469" d="M414 312q0 -75 -15 -134t-43.5 -100t-70.5 -63t-97 -22q-14 0 -26.5 1.5t-26 5.5t-29 10.5t-36.5 17.5l29 41q32 -20 50.5 -26t38.5 -6q41 0 69 18.5t47 48.5t30.5 69.5t19.5 81.5q-44 -35 -73.5 -46t-60.5 -11q-37 0 -67.5 12.5t-52 35t-33.5 52.5t-12 66q0 37 13 69.5 t36 56.5t56 38t72 14q43 0 76.5 -16.5t57 -46.5t36 -72.5t12.5 -94.5zM355 339q-6 80 -38.5 119t-85.5 39q-51 0 -84 -36t-33 -101q0 -56 31.5 -87t80.5 -31q23 0 42.5 9t36 23t29 31t21.5 34z" />
<glyph unicode=":" horiz-adv-x="190" d="M36 426v86h81v-86h-81zM36 0v86h81v-86h-81z" />
<glyph unicode=";" horiz-adv-x="190" d="M94 427v85h81v-85h-81zM100 -106h-40l43 181h59z" />
<glyph unicode="&#x3c;" horiz-adv-x="430" d="M13 230v48l404 191v-45l-360 -170l360 -170v-44z" />
<glyph unicode="=" horiz-adv-x="384" d="M69 295v52h246v-52h-246zM69 181v52h246v-52h-246z" />
<glyph unicode="&#x3e;" horiz-adv-x="600" d="M98 40v44l360 170l-360 170v45l404 -191v-48z" />
<glyph unicode="?" horiz-adv-x="449" d="M346 452q0 -22 -5.5 -40t-14.5 -35q-10 -18 -23 -34.5t-26 -32.5q-9 -11 -17.5 -22t-15.5 -23q-8 -13 -12.5 -28t-4.5 -33v-8h-59v11q0 33 8 53t19 37q6 9 13 17t15 17q8 10 16 20.5t16 23.5q10 16 16 33.5t6 37.5q0 22 -8 38.5t-21.5 27t-31 15.5t-35.5 5q-32 0 -56 -6 t-49 -22l-5 62q29 13 58 18.5t61 5.5q30 0 58 -9t50 -26.5t35 -43.5t13 -59zM158 0v85h81v-85h-81z" />
<glyph unicode="@" horiz-adv-x="968" d="M928 94q-67 -151 -163 -224q-107 -82 -268 -82q-199 0 -320 130q-116 125 -116 319q0 197 135 328q136 131 341 131q150 0 246 -99q96 -98 96 -256q0 -140 -77 -249q-77 -108 -175 -108q-97 0 -101 76q-1 24 8 69q-63 -74 -87 -95q-58 -50 -103 -50t-70 37q-22 31 -22 82 q0 111 86 235q92 131 195 131q30 0 50 -25.5t25 -59.5l20 65l82 10l-94 -317q-13 -42 -13 -74q0 -50 36 -50q76 0 141 101q65 103 65 226q0 136 -92 231q-90 92 -214 92q-191 0 -314 -130q-120 -126 -120 -311q0 -167 109 -285q114 -124 289 -124q281 0 395 276h30zM585 369 q0 28 -22 50q-23 24 -43 24q-76 0 -142 -122q-58 -109 -58 -203q0 -70 55 -70q71 0 143 117q67 110 67 204z" />
<glyph unicode="A" horiz-adv-x="750" d="M742 0h-280v18q74 0 74 43q0 19 -12 46l-51 120h-265l-52 -120q-12 -27 -12 -45q0 -44 79 -44v-18h-217v18q59 0 97 89l253 589h24l249 -589q21 -50 42 -68q24 -21 71 -21v-18zM454 265l-113 274l-118 -274h231z" />
<glyph unicode="B" horiz-adv-x="672" d="M621 184q0 -80 -60 -132q-59 -52 -156 -52h-385v18q54 0 75 18.5t21 71.5v464q0 53 -21 71.5t-75 18.5v18h345q100 0 161 -46q63 -47 63 -121q0 -57 -24 -91t-89 -69v-2q67 -11 106 -55.5t39 -111.5zM483 503q0 64 -42 102q-47 41 -136 41q-21 0 -42 -3t-43 -8v-258 q25 -7 131 -7q61 0 96.5 38t35.5 95zM509 180q0 69 -41 110q-46 46 -141 46q-26 0 -52.5 -1.5t-54.5 -5.5v-279q46 -11 113 -11q86 0 133 42q43 37 43 99z" />
<glyph unicode="C" horiz-adv-x="685" d="M652 159q-42 -75 -107 -122q-76 -53 -159 -53q-152 0 -253 101t-101 247q0 151 106 257q107 107 251 107q53 0 92 -12q25 -8 51 -22q22 -12 32 -12q11 0 22 13.5t15 32.5h17l17 -231h-24q-10 82 -70 139q-59 58 -135 58q-113 0 -184 -95q-68 -91 -68 -239q0 -140 78 -224 q73 -81 189 -81q119 0 214 146z" />
<glyph unicode="D" horiz-adv-x="737" d="M705 346q0 -149 -93 -245q-98 -101 -265 -101h-327v18q54 0 75 18.5t21 71.5v464q0 53 -21 71.5t-75 18.5v18h302q190 0 278 -82q105 -98 105 -252zM583 344q0 127 -72 214q-72 88 -181 88q-48 0 -110 -17v-579q41 -16 110 -16q108 0 179 83q74 88 74 227z" />
<glyph unicode="E" horiz-adv-x="625" d="M607 191l-61 -191h-526v18q54 0 75 18.5t21 71.5v464q0 53 -21 71.5t-75 18.5v18h522l8 -162h-18q-14 66 -43 95q-33 33 -97 33h-172v-258h147q102 0 102 88h18v-230h-18q0 108 -100 108h-149v-278q0 -17 12 -29.5t28 -12.5h142q132 0 181 157h24z" />
<glyph unicode="F" horiz-adv-x="552" d="M532 518h-18q-14 66 -43 95q-33 33 -97 33h-154v-258h103q102 0 102 88h18v-230h-18q0 108 -100 108h-105v-246q0 -53 21 -71.5t75 -18.5v-18h-296v18q54 0 75 18.5t21 71.5v464q0 53 -21 71.5t-75 18.5v18h504z" />
<glyph unicode="G" horiz-adv-x="758" d="M726 345q-39 0 -54 -18.5t-15 -66.5v-210q-111 -66 -271 -66q-152 0 -253 101t-101 247q0 151 106 257q107 107 251 107q70 0 127 -23t60 -23q11 0 22 13.5t15 32.5h17l17 -231h-24q-50 197 -217 197q-113 0 -184 -95q-68 -91 -68 -239q0 -140 78 -224q73 -81 189 -81 q79 0 132 47v190q0 24 -4.5 40.5t-15 26.5t-29 14t-46.5 4v18h268v-18z" />
<glyph unicode="H" horiz-adv-x="751" d="M731 0h-296v18q54 0 75 18.5t21 71.5v228h-311v-228q0 -53 21 -71.5t75 -18.5v-18h-296v18q54 0 75 18.5t21 71.5v464q0 53 -21 71.5t-75 18.5v18h296v-18q-54 0 -75 -18.5t-21 -71.5v-202h311v202q0 53 -21 71.5t-75 18.5v18h296v-18q-54 0 -75 -18.5t-21 -71.5v-464 q0 -53 21 -71.5t75 -18.5v-18z" />
<glyph unicode="I" horiz-adv-x="342" d="M319 0h-296v18q54 0 75 18.5t21 71.5v464q0 53 -21 71.5t-75 18.5v18h296v-18q-54 0 -75 -18.5t-21 -71.5v-464q0 -53 21 -71.5t75 -18.5v-18z" />
<glyph unicode="J" horiz-adv-x="397" d="M387 662q-54 0 -75 -18.5t-21 -71.5v-354q0 -115 -51 -174.5t-139 -59.5q-41 0 -67 19q-30 22 -30 59q0 21 17.5 35.5t37.5 14.5q30 0 44 -24l19 -47q11 -23 31 -23q34 0 34 65v489q0 53 -21 71.5t-75 18.5v18h296v-18z" />
<glyph unicode="K" horiz-adv-x="752" d="M761 0h-317v18q48 0 48 36q0 18 -38 56l-234 235v-237q0 -53 21 -71.5t75 -18.5v-18h-296v18q54 0 75 18.5t21 71.5v464q0 53 -21 71.5t-75 18.5v18h296v-18q-54 0 -75 -18.5t-21 -71.5v-193l217 196q46 42 46 63q0 24 -63 24v18h251v-19q-23 0 -42.5 -3.5t-39 -13 t-39.5 -24.5t-44 -37l-202 -189l276 -275q35 -35 59.5 -56t38.5 -29q29 -16 83 -16v-18z" />
<glyph unicode="L" horiz-adv-x="628" d="M610 185l-59 -185h-531v18q54 0 75 18.5t21 71.5v464q0 53 -21 71.5t-75 18.5v18h296v-18q-54 0 -75 -18.5t-21 -71.5v-487q0 -21 11.5 -36t27.5 -15h127q154 0 204 156z" />
<glyph unicode="M" horiz-adv-x="926" d="M904 0h-296v18q54 0 75 18.5t21 71.5v449h-4l-253 -557h-21l-257 553h-7v-445q0 -53 21 -71.5t75 -18.5v-18h-238v18q54 0 75 18.5t21 71.5v464q0 53 -21 71.5t-75 18.5v18h202l241 -522h5l236 522h200v-18q-54 0 -75 -18.5t-21 -71.5v-464q0 -53 21 -71.5t75 -18.5v-18z " />
<glyph unicode="N" horiz-adv-x="739" d="M722 662q-54 0 -75 -18.5t-21 -71.5v-588h-24l-439 553h-4v-429q0 -53 21 -71.5t75 -18.5v-18h-238v18q54 0 75 18.5t21 71.5v458q0 21 -9 38.5t-24 30.5t-35.5 20t-44.5 7v18h171l405 -497h4v389q0 53 -21 71.5t-75 18.5v18h238v-18z" />
<glyph unicode="O" horiz-adv-x="746" d="M714 344q0 -149 -99 -255q-99 -105 -242 -105t-242 105q-99 106 -99 255q0 147 99 249q99 103 242 103t242 -103q99 -102 99 -249zM592 344q0 143 -57 229q-59 89 -162 89q-104 0 -163 -89q-56 -86 -56 -229q0 -145 56 -233q58 -93 163 -93q103 0 162 93q57 88 57 233z " />
<glyph unicode="P" horiz-adv-x="576" d="M544 486q0 -89 -64 -138q-56 -45 -139 -45q-75 0 -121 12v-207q0 -53 21 -71.5t75 -18.5v-18h-296v18q54 0 75 18.5t21 71.5v464q0 53 -21 71.5t-75 18.5v18h292q99 0 164 -50q68 -54 68 -144zM432 479q0 70 -40 116q-41 47 -98 47q-44 0 -74 -10v-279q49 -15 79 -15 q64 0 100 41q33 37 33 100z" />
<glyph unicode="Q" horiz-adv-x="738" d="M706 344q0 -121 -72 -221q-73 -103 -184 -129q23 -74 92 -128q74 -61 160 -61v-18q-126 0 -258 72q-57 31 -100 66t-72 73q-103 28 -172 130q-68 103 -68 216q0 148 97 249q97 103 240 103t240 -103q97 -101 97 -249zM588 344q0 143 -57 229q-59 89 -162 89 q-104 0 -163 -89q-56 -86 -56 -229q0 -145 56 -233q58 -93 163 -93q106 13 162.5 98t56.5 228z" />
<glyph unicode="R" horiz-adv-x="691" d="M702 0h-194l-215 320h-73v-212q0 -53 21 -71.5t75 -18.5v-18h-296v18q54 0 75 18.5t21 71.5v464q0 53 -21 71.5t-75 18.5v18h310q107 0 168 -50q56 -47 56 -127q0 -63 -41 -109t-110 -64l145 -213q67 -99 154 -99v-18zM442 499q0 63 -37 104q-37 43 -93 43q-59 0 -92 -13 v-279h60q36 0 65.5 10.5t51 29t33.5 45.5t12 60z" />
<glyph unicode="S" horiz-adv-x="560" d="M510 179q0 -82 -59 -138q-63 -57 -168 -57q-52 0 -106 20q-47 18 -62 18q-26 0 -32 -38h-18v230h18q8 -90 70 -142q59 -50 138 -50q53 0 90 31q39 31 39 81q0 68 -94 126l-174 100q-94 66 -94 153q0 78 56 131q56 52 146 52q34 0 85 -16q3 -1 11.5 -4.5t22.5 -9.5 q21 -8 31 -8q14 0 25.5 12.5t11.5 25.5h18v-237h-19q-9 94 -57 146.5t-129 52.5q-53 0 -89 -36q-33 -32 -33 -73q0 -59 96 -117l180 -104q96 -68 96 -149z" />
<glyph unicode="T" horiz-adv-x="590" d="M578 518h-18q-14 66 -43 95q-33 33 -97 33h-74v-538q0 -53 21 -71.5t75 -18.5v-18h-296v18q54 0 75 18.5t21 71.5v538h-74q-64 0 -95.5 -31t-44.5 -97h-18l8 162h552z" />
<glyph unicode="U" horiz-adv-x="752" d="M743 662q-54 0 -75 -18.5t-21 -71.5v-333q0 -113 -63 -180q-72 -75 -208 -75q-124 0 -196 76q-67 70 -67 181v331q0 53 -21 71.5t-75 18.5v18h296v-18q-54 0 -75 -18.5t-21 -71.5v-333q0 -88 53 -150q52 -61 139 -61t141 62q51 58 51 149v333q0 53 -21 71.5t-75 18.5v18 h238v-18z" />
<glyph unicode="V" horiz-adv-x="724" d="M721 662q-61 0 -107 -115l-228 -563h-26l-258 594q-20 46 -43 65t-59 19v18h278v-18q-74 0 -74 -47q0 -19 14 -53l183 -423l168 416q12 28 12 51q0 56 -70 56v18h210v-18z" />
<glyph unicode="W" horiz-adv-x="946" d="M950 662q-42 0 -61 -27q-13 -15 -34 -78l-195 -573h-24l-157 431l-153 -431h-24l-204 570q-22 61 -38 82q-20 26 -60 26v18h252v-18q-67 0 -67 -37q0 -18 17 -67l140 -395l113 318l-26 74q-21 59 -37 79q-24 28 -69 28v18h265v-18q-68 0 -68 -38q0 -25 15 -68l136 -393 l138 396q11 35 11 53q0 50 -73 50l1 18h202v-18z" />
<glyph unicode="X" horiz-adv-x="742" d="M734 0h-295v17q67 1 67 39q0 20 -20 52l-126 190l-143 -184q-27 -27 -27 -54q0 -42 62 -42v-18h-252v18q41 0 87 28q45 26 71 61l177 231l-167 241q-59 83 -144 83v18h319v-18q-72 0 -72 -38q0 -19 20 -48l107 -158l124 157q26 34 26 53q0 34 -69 34v18h239v-19 q-39 1 -68.5 -16t-62.5 -59l-166 -209l192 -269q34 -48 50 -63q31 -27 71 -27v-18z" />
<glyph unicode="Y" horiz-adv-x="694" d="M695 662q-21 0 -38 -4.5t-31.5 -14.5t-28 -26t-28.5 -40l-178 -283v-186q0 -53 21 -71.5t75 -18.5v-18h-296v18q54 0 75 18.5t21 71.5v175l-201 302q-27 40 -42 55q-23 22 -60 22v18h296v-18q-83 0 -81 -47q0 -19 18 -47l147 -236l153 246q10 16 10 35q0 49 -71 49v18 h239v-18z" />
<glyph unicode="Z" horiz-adv-x="622" d="M598 178l-32 -178h-556v17l438 624h-210q-76 0 -107 -28q-31 -27 -42 -104h-18l15 171h511l-451 -641h275q25 0 49 10.5t45 29t37.5 44t27.5 55.5h18z" />
<glyph unicode="[" horiz-adv-x="286" d="M70 -194v884h146v-28h-101v-828h101v-28h-146z" />
<glyph unicode="\" horiz-adv-x="275" d="M274 -16h-47l-228 712h47z" />
<glyph unicode="]" horiz-adv-x="286" d="M70 -194v28h101v828h-101v28h146v-884h-146z" />
<glyph unicode="^" horiz-adv-x="496" d="M484 328h-63l-174 292l-175 -292h-60l220 368h32z" />
<glyph unicode="_" horiz-adv-x="550" d="M550 -146h-550v46h550v-46z" />
<glyph unicode="`" horiz-adv-x="201" d="M190 719h-28l-151 177h126z" />
<glyph unicode="a" horiz-adv-x="445" d="M439 58q-41 -68 -107 -68q-25 0 -38 25q-12 19 -12 48q-26 -22 -40.5 -34.5t-18.5 -14.5q-38 -24 -84 -24q-49 0 -78 32t-29 83q0 78 85 127q33 19 165 66v28q0 113 -81 113q-68 0 -68 -70q0 -61 -41 -61q-19 0 -31.5 15.5t-12.5 38.5q0 44 50 76q49 31 119 31 q148 0 148 -122v-260q0 -35 23 -35q26 0 51 40v-34zM282 268q-167 -59 -167 -139q0 -33 20.5 -58t47.5 -25q37 0 99 50v172z" />
<glyph unicode="b" horiz-adv-x="506" d="M468 264q0 -112 -68 -194q-68 -80 -165 -80q-100 0 -161 55v505q0 46 -4 57q-5 18 -26 18q-11 0 -41 -8l-7 18l137 61h24v-322q19 38 62 67q43 28 82 28q72 0 119 -60q48 -59 48 -145zM381 235q0 68 -36 116t-86 48q-28 0 -57.5 -16.5t-44.5 -39.5v-268q45 -47 95 -47 q57 0 93 58t36 149z" />
<glyph unicode="c" horiz-adv-x="450" d="M421 174q-21 -88 -70.5 -136t-121.5 -48q-82 0 -140 66q-57 67 -57 162q0 103 63 177q65 74 154 74q71 0 115 -31q46 -31 46 -78q0 -21 -17 -36t-38 -15q-22 0 -35.5 15.5t-13.5 35.5q0 75 -70 75q-27 0 -49.5 -12t-38.5 -33.5t-24.5 -50.5t-8.5 -62q0 -92 40 -154 q40 -63 106 -63q93 0 141 120z" />
<glyph unicode="d" horiz-adv-x="510" d="M511 53l-140 -63h-24v55q-61 -55 -138 -55q-73 0 -125 69q-52 70 -52 165q0 94 65 170q66 75 155 75q53 0 95 -42v123q0 46 -4 57q-5 18 -26 18q-11 0 -41 -8l-7 18l137 61h24v-560q0 -45 9 -61t33 -16q17 0 33 8zM347 314q0 52 -33 88q-32 33 -71 33q-51 0 -85 -52 t-34 -133q0 -87 38 -149q39 -61 94 -61q52 0 91 47v227z" />
<glyph unicode="e" horiz-adv-x="462" d="M435 161q-18 -72 -76 -121q-59 -50 -122 -50q-85 0 -145 65q-60 66 -60 158q0 112 57 184t149 72q80 0 133 -54q53 -53 53 -131h-312q0 -95 42 -159q42 -65 106 -65q53 0 100 30q47 32 57 74zM320 308q0 52 -32 90q-31 37 -76 37q-38 0 -67 -38t-33 -89h208z" />
<glyph unicode="f" horiz-adv-x="292" d="M409 615q0 -39 -41 -39q-31 0 -53 43t-57 43q-13 0 -25.5 -7t-22 -19t-15.5 -27.5t-6 -32.5v-117h112v-34h-112v-318q0 -51 14 -70t58 -19v-18h-227v18q44 0 59 21q13 17 13 68v318h-88v34h88v69q0 69 45 119q46 49 111 49q147 0 147 -81z" />
<glyph unicode="g" horiz-adv-x="500" d="M474 -36q0 -41 -17 -73.5t-49.5 -55t-78.5 -35t-103 -12.5q-206 0 -206 94q0 34 31 69q7 8 22 23t40 37q-55 19 -55 56q0 14 6.5 29t18 28.5t27 25t33.5 18.5q-90 42 -90 136q0 68 53 116q53 49 131 49q85 0 118 -33h119v-38h-79q27 -42 27 -89q0 -71 -54 -116 q-55 -44 -140 -44q-31 0 -61 10q-29 -26 -29 -53q0 -30 53 -32l155 -7q128 -6 128 -103zM332 286q0 67 -31 113t-74 46q-81 0 -81 -124q0 -32 7 -59t20 -46.5t30.5 -31t38.5 -11.5q36 0 63 33t27 80zM436 -69q0 59 -104 59q-64 0 -112 3.5t-82 10.5q-38 -32 -38 -78 q0 -33 40 -54q43 -24 118 -24q77 0 131 26q47 26 47 57z" />
<glyph unicode="h" horiz-adv-x="520" d="M506 0h-227v18q44 0 59 21q13 17 13 68v208q0 92 -67 92q-56 0 -117 -66v-234q0 -51 14 -70t58 -19v-18h-227v18q44 0 59 21q13 17 13 68v443q0 46 -4 57q-5 18 -26 18q-11 0 -41 -8l-7 18l137 61h24v-320q75 93 162 93q44 0 74 -41q31 -40 31 -98v-223q0 -51 14 -70 t58 -19v-18z" />
<glyph unicode="i" horiz-adv-x="278" d="M192 650q0 -19 -14 -32.5t-34 -13.5t-34 13.5t-14 32.5t14 32.5t34 13.5t34 -13.5t14 -32.5zM258 0h-227v18q44 0 59 21q13 17 13 68v216q0 46 -4 57q-5 18 -26 18q-11 0 -41 -8l-7 18l137 61h24v-362q0 -51 14 -70t58 -19v-18z" />
<glyph unicode="j" horiz-adv-x="278" d="M192 650q0 -19 -14 -32.5t-34 -13.5t-34 13.5t-14 32.5t14 32.5t34 13.5t34 -13.5t14 -32.5zM186 0q0 -132 -44 -178q-33 -34 -123 -34q-37 0 -59.5 16t-22.5 39q0 39 43 39q18 0 38 -30q21 -30 42 -30q43 0 43 78v423q0 46 -4 57q-5 18 -26 18q-11 0 -41 -8l-7 18 l137 61h24v-469z" />
<glyph unicode="k" horiz-adv-x="510" d="M525 0h-227v18q30 0 30 23q0 15 -37 61l-120 150v-145q0 -51 14 -70t58 -19v-18h-227v18q44 0 59 21q13 17 13 68v443q0 46 -4 57q-5 18 -26 18q-11 0 -41 -8l-7 18l137 61h24v-435l111 101l36 34t18 29q0 16 -36 16v18h190v-18q-45 0 -76 -14q-27 -13 -83 -61l-84 -73 l136 -172q25 -31 44 -51.5t33 -31.5q29 -20 65 -20v-18z" />
<glyph unicode="l" horiz-adv-x="277" d="M253 0h-227v18q44 0 59 21q13 17 13 68v443q0 46 -4 57q-5 18 -26 18q-11 0 -41 -8l-7 18l137 61h24v-589q0 -51 14 -70t58 -19v-18z" />
<glyph unicode="m" horiz-adv-x="805" d="M797 0h-227v18q44 0 59 21q13 17 13 68v205q0 39 -22 67t-53 28q-34 0 -68.5 -19t-50.5 -46v-235q0 -51 14 -70t58 -19v-18h-227v18q44 0 59 21q13 17 13 68v205q0 19 -6 36.5t-16.5 30.5t-24 20.5t-28.5 7.5q-31 0 -65.5 -19t-53.5 -46v-235q0 -51 14 -70t58 -19v-18 h-227v18q44 0 59 21q13 17 13 68v216q0 46 -4 57q-5 18 -26 18q-11 0 -41 -8l-7 18l137 61h24v-95q35 41 77 67q46 28 83 28q40 0 74 -28q34 -29 42 -69q20 39 69 68t95 29q47 0 80 -43q34 -41 34 -101v-218q0 -51 14 -70t58 -19v-18z" />
<glyph unicode="n" horiz-adv-x="518" d="M510 0h-227v18q44 0 59 21q13 17 13 68v208q0 92 -67 92q-56 0 -117 -66v-234q0 -51 14 -70t58 -19v-18h-227v18q44 0 59 21q13 17 13 68v216q0 46 -4 57q-5 18 -26 18q-11 0 -41 -8l-7 18l137 61h24v-93q75 93 162 93q44 0 74 -41q31 -40 31 -98v-223q0 -51 14 -70 t58 -19v-18z" />
<glyph unicode="o" horiz-adv-x="506" d="M474 243q0 -107 -63 -180t-158 -73t-158 68q-63 67 -63 166q0 103 63 174t158 71t158 -66q63 -65 63 -160zM381 196q0 239 -148 239q-43 0 -76 -50q-32 -50 -32 -119q0 -103 38 -171q41 -71 106 -71q48 0 80 50q32 52 32 122z" />
<glyph unicode="p" horiz-adv-x="516" d="M484 253q0 -117 -55 -188q-56 -75 -149 -75q-65 0 -112 34v-111q0 -51 14 -70t58 -19v-18h-227v18q44 0 58 19.5t14 69.5v410q0 46 -4 57q-5 18 -26 18q-11 0 -41 -8l-7 18l137 61h24v-103q72 103 152 103q73 0 118 -63q46 -61 46 -153zM392 205q0 100 -31 152 q-29 50 -78 50q-65 0 -115 -74v-209q0 -42 31.5 -71t80.5 -29q47 0 79 50q33 51 33 131z" />
<glyph unicode="q" horiz-adv-x="512" d="M503 -194h-227v18q44 0 58 19.5t14 69.5v159q-67 -82 -149 -82q-69 0 -118 63q-49 64 -49 154q0 108 66 185q68 77 162 77q66 0 88 -34l63 34h20v-556q0 -51 14 -70t58 -19v-18zM348 348q0 33 -25 58q-29 29 -74 29q-54 0 -92 -53t-38 -127q0 -81 36 -138t87 -57 q36 0 67 19q28 16 39 37v232z" />
<glyph unicode="r" horiz-adv-x="344" d="M353 414q0 -45 -48 -45q-20 0 -38 15t-31 15q-27 0 -67 -72v-220q0 -51 14 -70t58 -19v-18h-227v18q44 0 59 21q13 17 13 68v216q0 46 -4 57q-5 18 -26 18q-11 0 -41 -8l-7 18l137 61h24v-96q58 96 119 96q27 0 46 -16t19 -39z" />
<glyph unicode="s" horiz-adv-x="402" d="M367 129q0 -61 -42 -100t-118 -39q-29 0 -68 11q-38 12 -46 12q-15 0 -21 -13h-18v159h18q7 -56 48 -96q40 -39 89 -39q32 0 54 19.5t22 46.5q0 46 -61 80q-28 16 -56 31t-57 30q-61 43 -61 110q0 57 37 92.5t98 35.5q28 0 61 -9q34 -9 43 -9q16 0 21 18h18v-153h-18 q-3 52 -37 87q-35 36 -80 36q-36 0 -58.5 -18t-22.5 -43q0 -46 66 -80q31 -15 61.5 -30t61.5 -31q66 -44 66 -108z" />
<glyph unicode="t" horiz-adv-x="290" d="M290 97q-32 -107 -128 -107q-82 0 -82 107v328h-72v24q47 0 83 48t48 120h24v-158h111v-34h-111v-328q0 -20 13 -34.5t32 -14.5q38 0 60 49h22z" />
<glyph unicode="u" horiz-adv-x="518" d="M518 53l-140 -63h-24v96q-22 -39 -64 -68q-40 -28 -78 -28q-55 0 -94 42q-38 43 -38 101v229q0 46 -15 62.5t-57 16.5v18h155v-326q0 -35 27 -59t65 -24q25 0 54 21.5t45 52.5v238q0 46 -15 62.5t-57 16.5v18h155v-323q0 -45 9 -61t33 -16q17 0 33 8z" />
<glyph unicode="v" horiz-adv-x="494" d="M485 441q-38 0 -63 -60l-163 -391h-24l-163 381q-18 42 -32.5 56t-39.5 14v18h208v-18q-53 0 -53 -29q0 -19 15 -56l100 -244l104 254q13 30 13 56q0 19 -57 19v18h155v-18z" />
<glyph unicode="w" horiz-adv-x="753" d="M753 441q-44 0 -68 -25q-19 -20 -36 -68l-132 -358h-24l-119 308l-119 -308h-24l-139 354q-13 34 -23 54t-17 28q-14 15 -52 15v18h200v-18q-39 0 -39 -25q0 -23 18 -68l90 -224l86 220l-10 26q-8 23 -29 44q-27 27 -60 27v18h232v-18q-63 0 -63 -33q0 -17 17 -60 l90 -224l75 214q20 58 20 72q0 31 -44 31v18h170v-18z" />
<glyph unicode="x" horiz-adv-x="503" d="M497 0h-225l1 18q47 0 47 29q0 11 -29 55l-66 101l-89 -115q-17 -23 -17 -44q0 -26 42 -26v-18h-149v18q29 0 72 58l119 157l-92 147q-37 61 -103 61v18h216v-18q-31 0 -32 -22q-1 -11 19 -44l45 -71l40 56q32 46 32 61q0 20 -40 20v18h160v-18q-27 0 -48 -15 q-26 -18 -66 -72l-59 -79l127 -188q46 -69 95 -69v-18z" />
<glyph unicode="y" horiz-adv-x="514" d="M497 441q-28 0 -41 -18q-11 -14 -30 -61l-185 -452q-22 -54 -61.5 -88t-79.5 -34q-27 0 -46.5 14.5t-20.5 34.5q-2 51 51 51q20 0 35 -9t31 -9q31 0 66 83l29 70l-143 300q-55 118 -102 118v18h211v-18q-49 0 -49 -36q0 -13 35 -88l89 -188l95 234q14 34 14 50 q0 28 -47 28v18h149v-18z" />
<glyph unicode="z" horiz-adv-x="463" d="M440 441l-308 -407h195q40 0 60 15q27 19 33 97h18l-10 -146h-408v24l302 401h-165q-40 0 -57 -17q-23 -23 -24 -76h-18v127h382v-18z" />
<glyph unicode="{" horiz-adv-x="374" d="M70 265q34 8 60 40.5t26 82.5v194q0 27 9 47.5t23 34t30 20t30 6.5h56v-28h-31q-22 0 -36 -9.5t-22 -24t-11 -32.5t-3 -35v-188q0 -29 -9 -50t-22.5 -35.5t-29.5 -23t-31 -11.5v-12q15 -2 31 -9.5t29.5 -21.5t22.5 -36.5t9 -54.5v-184q0 -17 3 -35t11 -32.5t22 -24 t36 -9.5h31v-28h-56q-14 0 -30 6.5t-30 20t-23 34t-9 47.5v189q0 53 -26 86.5t-60 41.5v34z" />
<glyph unicode="|" horiz-adv-x="186" d="M116 -198h-46v890h46v-890z" />
<glyph unicode="}" horiz-adv-x="374" d="M304 231q-34 -8 -60 -41.5t-26 -86.5v-189q0 -27 -9 -47.5t-23 -34t-30 -20t-30 -6.5h-56v28h31q22 0 36 9.5t22 24t11 32.5t3 35v184q0 32 9 54.5t22.5 36.5t29.5 21.5t31 9.5v12q-15 3 -31 11.5t-29.5 23t-22.5 35.5t-9 50v188q0 17 -3 35t-11 32.5t-22 24t-36 9.5h-31 v28h56q14 0 30 -6.5t30 -20t23 -34t9 -47.5v-194q0 -50 26 -82.5t60 -40.5v-34v0z" />
<glyph unicode="~" horiz-adv-x="398" d="M360 380q0 -36 -34 -55q-26 -16 -65 -16q-46 0 -94 20l-32 16q-20 9 -32 9q-41 0 -44 -36h-21q0 14 7 27q27 51 94 51q34 0 87 -22q54 -21 75 -21q35 0 37 27h22z" />
<glyph unicode="&#xa2;" horiz-adv-x="500" d="M445 175q-45 -185 -188 -185q-42 0 -82 21l-76 -205h-40l83 226q-83 68 -83 186q0 104 64 177q65 74 154 74h14.5t11.5 -1l79 212h40l-81 -219q97 -25 97 -101q0 -21 -17 -36t-38 -15q-22 0 -35.5 15.5t-13.5 35.5q0 34 -11 51l-115 -311q36 -36 82 -36q93 0 141 119z M290 432q-11 3 -26 3q-27 0 -49.5 -12t-38.5 -33.5t-24.5 -50.5t-8.5 -62q0 -81 37 -142z" />
<glyph unicode="&#xa3;" horiz-adv-x="530" d="M501 152q-7 -68 -44 -115q-42 -53 -110 -53q-90 0 -167 83q-35 -83 -96 -83q-26 0 -45 19.5t-19 47.5q0 35 25 58t64 23q8 0 22 -2.5t20 -2.5q2 19 3.5 38.5t1.5 41.5q0 31 -3 65.5t-8 72.5h-103v34h98q-6 60 -6 91q0 95 48 157q54 69 150 69q60 0 98 -35q32 -32 32 -66 q0 -16 -12 -29.5t-28 -13.5q-41 0 -42 61q-1 52 -63 52q-95 0 -95 -142q0 -25 3 -60.5t8 -83.5h136l1 -34h-134l-1 -48q-1 -48 -9.5 -92.5t-24.5 -87.5q85 -41 169 -41q91 0 114 80zM147 86q-23 14 -46 14q-49 0 -49 -43q0 -42 33 -42q44 0 62 71z" />
<glyph unicode="&#xa5;" horiz-adv-x="607" d="M607 662q-89 0 -128 -85l-25 -55h98v-38h-115l-46 -100h161v-38h-178l-23 -51v-187q0 -53 20.5 -71.5t74.5 -18.5v-18h-303v18q28 0 47 4t29.5 14t15 27.5t4.5 44.5v175l-27 63h-168v38h151l-43 100h-108v38h92l-28 65q-32 75 -108 75v18h296v-18q-77 0 -77 -39 q0 -16 14 -55l18 -46h154l24 56q9 21 9 38q0 46 -70 46v18h239v-18zM388 484h-122l58 -147z" />
<glyph unicode="&#xa8;" horiz-adv-x="285" d="M107 800q0 -19 -14 -32.5t-34 -13.5t-34 13.5t-14 32.5t14 32.5t34 13.5t34 -13.5t14 -32.5zM283 800q0 -19 -14 -32.5t-34 -13.5t-34 13.5t-14 32.5t14 32.5t34 13.5t34 -13.5t14 -32.5z" />
<glyph unicode="&#xa9;" horiz-adv-x="760" d="M737 341q0 -148 -105 -253q-104 -104 -252 -104q-147 0 -253 104q-104 106 -104 253t104 251q106 104 253 104q148 0 252 -104q105 -104 105 -251zM706 341q0 134 -96 229q-95 95 -230 95q-134 0 -231 -95q-95 -95 -95 -229q0 -135 96 -231q97 -95 230 -95q136 0 230 94 q96 94 96 232zM576 216q-70 -103 -196 -103q-95 0 -163 64q-68 65 -68 158q0 107 67 171q68 65 175 65q35 0 91 -19q17 -5 18 -5q18 0 26 24h18l10 -142h-18q-14 55 -54 86.5t-97 31.5q-152 0 -152 -194q0 -206 168 -206q105 0 155 80z" />
<glyph unicode="&#xab;" horiz-adv-x="528" d="M478 0h-31l-199 230l199 229h31l-128 -229zM280 0h-31l-199 230l199 229h31l-128 -229z" />
<glyph unicode="&#xae;" horiz-adv-x="760" d="M737 341q0 -148 -105 -253q-104 -104 -252 -104q-147 0 -253 104q-104 106 -104 253t104 251q106 104 253 104q148 0 252 -104q105 -104 105 -251zM706 341q0 134 -96 229q-95 95 -230 95q-134 0 -231 -95q-95 -95 -95 -229q0 -135 96 -231q97 -95 230 -95q136 0 230 94 q96 94 96 232zM612 127h-101l-155 203h-40v-117q0 -68 63 -68v-18h-193v18q55 0 55 68v274q0 34 -9 46.5t-40 12.5v18h190q73 0 119 -26q51 -29 51 -86q0 -86 -117 -113l102 -139q24 -34 35 -43q13 -12 40 -12v-18zM466 445q0 42 -30 69.5t-75 27.5q-24 0 -45 -8v-181h10 q140 0 140 92z" />
<glyph unicode="&#xb4;" horiz-adv-x="201" d="M190 896l-151 -177h-28l53 177h126z" />
<glyph unicode="&#xb8;" horiz-adv-x="346" d="M262 -91q0 -59 -81 -59q-34 0 -83 13l-1 31q54 -12 83 -12q35 0 35 25q0 32 -59 26v61h25v-31q81 0 81 -54z" />
<glyph unicode="&#xbb;" horiz-adv-x="528" d="M478 230l-199 -230h-31l128 230l-128 229h31zM280 230l-199 -230h-31l128 230l-128 229h31z" />
<glyph unicode="&#x2c6;" horiz-adv-x="296" d="M296 739h-17l-131 107l-131 -107h-17l100 167h96z" />
<glyph unicode="&#x2da;" horiz-adv-x="196" d="M161 807q0 -26 -18 -44t-44 -18t-44 18t-18 44q0 25 18 43t44 18t44 -18t18 -43zM132 807q0 13 -10 23t-23 10q-33 0 -33 -33t33 -33q13 0 23 9.5t10 23.5z" />
<glyph unicode="&#x2dc;" horiz-adv-x="404" d="M356 830q0 -36 -33 -55q-28 -16 -66 -16q-46 0 -94 20q-8 4 -15.5 8t-15.5 8q-20 9 -33 9q-41 0 -44 -36h-21q0 13 8 27q27 51 93 51q35 0 88 -22q54 -21 74 -21q35 0 37 27h22z" />
<glyph unicode="&#x5b0;" d="M31 -133q0 -13 -9 -22.5t-22 -9.5q-14 0 -23 9.5t-9 22.5t9 22t22 9q14 0 23 -9t9 -22zM31 -227q0 -13 -9 -22t-22 -9q-14 0 -23 9t-9 22t9 22.5t22 9.5q14 0 23 -9.5t9 -22.5z" />
<glyph unicode="&#x5b1;" d="M-65 -133q0 -13 -8.5 -22.5t-21.5 -9.5q-14 0 -23 9.5t-9 22.5t9 22t22 9q14 0 22.5 -9t8.5 -22zM32 -132q0 -13 -9 -22.5t-22 -9.5q-14 0 -23 9.5t-9 22.5t9 22t22 9q14 0 23 -9t9 -22zM128 -214q0 -13 -9 -22t-22 -9q-14 0 -22.5 9t-8.5 22t8.5 22.5t21.5 9.5 q14 0 23 -9.5t9 -22.5zM128 -133q0 -13 -9 -22.5t-22 -9.5q-14 0 -22.5 9.5t-8.5 22.5t8.5 22t21.5 9q14 0 23 -9t9 -22zM-16 -214q0 -13 -9 -22t-22 -9q-14 0 -22.5 9t-8.5 22t8.5 22.5t21.5 9.5q14 0 23 -9.5t9 -22.5z" />
<glyph unicode="&#x5b3;" d="M-36 -137l3 -85h-40l3 85h-57v35h150v-35h-59zM127 -133q0 -13 -8.5 -22.5t-21.5 -9.5q-14 0 -23 9.5t-9 22.5t9 22t22 9q14 0 22.5 -9t8.5 -22zM127 -214q0 -13 -8.5 -22t-21.5 -9q-14 0 -23 9t-9 22t9 22.5t22 9.5q14 0 22.5 -9.5t8.5 -22.5z" />
<glyph unicode="&#x5b4;" d="M32 -133q0 -13 -9 -22t-22 -9q-14 0 -23 9t-9 22t9 22t22 9q14 0 23 -9t9 -22z" />
<glyph unicode="&#x5b5;" d="M81 -133q0 -13 -9 -22t-22 -9q-14 0 -22.5 9t-8.5 22t8.5 22t21.5 9q14 0 23 -9t9 -22zM-18 -133q0 -13 -8.5 -22t-21.5 -9q-14 0 -23 9t-9 22t9 22t22 9q14 0 22.5 -9t8.5 -22z" />
<glyph unicode="&#x5b6;" d="M32 -214q0 -13 -9 -22t-22 -9q-14 0 -23 9t-9 22t9 22.5t22 9.5q14 0 23 -9.5t9 -22.5zM81 -133q0 -13 -9 -22.5t-22 -9.5q-14 0 -22.5 9.5t-8.5 22.5t8.5 22t21.5 9q14 0 23 -9t9 -22zM-18 -133q0 -13 -8.5 -22.5t-21.5 -9.5q-14 0 -23 9.5t-9 22.5t9 22t22 9 q14 0 22.5 -9t8.5 -22z" />
<glyph unicode="&#x5b7;" d="M-76 -137v35h152v-35h-152z" />
<glyph unicode="&#x5b8;" d="M17 -136l3 -85h-40l2 85h-57v34h151v-34h-59z" />
<glyph unicode="&#x5b9;" d="M32 612q0 -13 -9 -22t-22 -9q-14 0 -23 9t-9 22t9 22t22 9q14 0 23 -9t9 -22z" />
<glyph unicode="&#x5bb;" d="M-34 -134q0 -13 -8.5 -22t-21.5 -9q-14 0 -23 9t-9 22t9 22.5t22 9.5q14 0 22.5 -9.5t8.5 -22.5zM31 -196q0 -13 -9 -22t-22 -9q-14 0 -22.5 9t-8.5 22t8.5 22.5t21.5 9.5q14 0 23 -9.5t9 -22.5zM96 -257q0 -13 -9 -22.5t-22 -9.5q-14 0 -22.5 9.5t-8.5 22.5t8.5 22 t21.5 9q14 0 23 -9t9 -22z" />
<glyph unicode="&#x5bc;" d="M34 269q0 -14 -9.5 -24t-24.5 -10q-14 0 -24 10t-10 24q0 15 10 24.5t24 9.5q15 0 24.5 -9.5t9.5 -24.5z" />
<glyph unicode="&#x5bd;" d="M-12 -209v107h24v-107h-24z" />
<glyph unicode="&#x5be;" horiz-adv-x="284" d="M69 462v48h146v-48h-146z" />
<glyph unicode="&#x5bf;" d="M-88 579v42h177v-42h-177z" />
<glyph unicode="&#x5c0;" horiz-adv-x="168" d="M60 -130v747h48v-747h-48z" />
<glyph unicode="&#x5c1;" d="M34 639q0 -14 -9.5 -24t-24.5 -10q-14 0 -24 10t-10 24q0 15 10 24.5t24 9.5q15 0 24.5 -9.5t9.5 -24.5z" />
<glyph unicode="&#x5c2;" d="M34 645q0 -14 -9.5 -24t-24.5 -10q-14 0 -24 10t-10 24q0 15 10 24.5t24 9.5q15 0 24.5 -9.5t9.5 -24.5z" />
<glyph unicode="&#x5c3;" horiz-adv-x="275" d="M36 426v86h81v-86h-81zM36 0v86h81v-86h-81z" />
<glyph unicode="&#x5c5;" d="M-50 -347q0 21 14.5 35.5t35.5 14.5t35.5 -14.5t14.5 -35.5t-14.5 -35.5t-35.5 -14.5t-35.5 14.5t-14.5 35.5z" />
<glyph unicode="&#x5c6;" horiz-adv-x="449" d="M430 297q0 -84 -60 -145q-60 -60 -144 -60q-85 0 -146 60q-60 60 -60 145t60 144q62 59 146 59t144 -60q60 -59 60 -143z" />
<glyph unicode="&#x5c7;" d="M66 -138h-53l4 -42q1 -7 1 -9l1 -1v-55h-38v55q1 1 2 10q2 13 4 42h-53v36h132v-36z" />
<glyph unicode="&#x5d0;" horiz-adv-x="536" d="M489 510v-57q0 -60 -13 -104t-31.5 -75.5t-40 -52t-39.5 -32.5q18 -28 35.5 -55.5t33.5 -52.5t29.5 -46t21.5 -35h-76q-23 40 -46.5 76.5t-49 75t-55 80t-64.5 91.5q-27 -26 -44.5 -58.5t-27.5 -68.5t-13.5 -75t-3.5 -78v-43h-62q0 9 -0.5 23t-0.5 32q0 30 3.5 68.5 t15.5 80.5t35 84.5t62 80.5q-27 36 -58.5 75t-54.5 66h80q36 -44 62.5 -76.5t49 -62.5t45 -61t50.5 -72q8 6 23.5 17.5t31.5 34.5t27.5 62t11.5 100v58h63z" />
<glyph unicode="&#x5d1;" horiz-adv-x="516" d="M35 0v48h297v268q0 76 -31.5 117t-109.5 41q-35 0 -70.5 -10.5t-64.5 -30.5l-2 45q32 20 70 32t82 12q102 0 145.5 -51.5t43.5 -156.5v-266h76v-48h-436z" />
<glyph unicode="&#x5d2;" horiz-adv-x="324" d="M199 0v185h-2q-13 -23 -27.5 -45.5t-33.5 -46.5t-44.5 -50t-61.5 -56v69q19 19 46.5 48t52.5 61.5t42.5 65t17.5 56.5v54q0 26 -3 48t-11.5 38t-25 25t-43.5 9h-13t-10 -1l-2 50q9 1 20 1.5t22 0.5q45 0 71 -19t39 -48.5t16 -64t3 -65.5v-224q0 -33 0.5 -55t1.5 -36h-55z " />
<glyph unicode="&#x5d3;" horiz-adv-x="464" d="M326 462v-462h-63v462h-223v48h376v-48h-90z" />
<glyph unicode="&#x5d4;" horiz-adv-x="542" d="M408 0v316q0 78 -46.5 118t-124.5 40q-17 0 -38.5 -3t-43.5 -8t-43 -13t-39 -18l-3 46q35 19 86 31.5t96 12.5q103 0 161 -51.5t58 -156.5v-314h-63zM74 0v248l63 21v-269h-63z" />
<glyph unicode="&#x5d5;" horiz-adv-x="213" d="M75 0v510h63v-510h-63z" />
<glyph unicode="&#x5d6;" horiz-adv-x="286" d="M246 462q-17 0 -31 -4.5t-28 -16.5q-23 -20 -28.5 -47.5t-1.5 -50.5l57 -343h-63l-51 310q-3 19 -1.5 39.5t7 39.5t14.5 33.5t22 20.5q5 3 11 6t8 6t-0.5 5t-14.5 2h-111v48h216v-48h-5z" />
<glyph unicode="&#x5d7;" horiz-adv-x="547" d="M414 0v316q0 78 -46.5 118t-124.5 40q-40 0 -105 -16v-458h-63v478q17 10 39 18t46.5 14t49.5 9t48 3q103 0 161 -51.5t58 -156.5v-314h-63z" />
<glyph unicode="&#x5d8;" horiz-adv-x="549" d="M489 204q0 -100 -51 -158t-147 -58h-22q-95 0 -147 58t-52 158v306h63v-264q0 -34 6.5 -71t23 -68t45 -51t72.5 -20t72.5 20t45 51t22.5 68t6 71v126q0 35 -9 52.5t-33 33.5q-19 12 -38.5 14.5t-41.5 0.5q-8 -1 -17.5 -3.5t-17.5 -5.5v42q5 2 9.5 3.5t9.5 3.5q15 5 27 7 t24 2q14 0 37 -5t38.5 -11.5t32.5 -22.5q13 -12 21.5 -28.5t13 -34t6 -34t1.5 -29.5v-153v0z" />
<glyph unicode="&#x5d9;" horiz-adv-x="213" d="M75 193v317h63v-294z" />
<glyph unicode="&#x5da;" horiz-adv-x="476" d="M343 -210v530q0 75 -31.5 115t-109.5 40q-17 0 -38.5 -2.5t-43.5 -8t-43 -13t-39 -17.5l-3 45q35 19 86 31t96 12q102 0 145.5 -50.5t43.5 -153.5v-528h-63z" />
<glyph unicode="&#x5db;" horiz-adv-x="463" d="M423 252q0 -59 -19 -107.5t-52.5 -83t-80.5 -53.5t-103 -19q-25 0 -44 2t-35 5t-30 7.5t-29 9.5l4 54q28 -17 58 -23.5t72 -6.5q46 0 82 16.5t61 46t38 69t13 85.5q0 48 -14 88.5t-39.5 69t-60.5 44.5t-76 16q-44 0 -73.5 -7t-60.5 -24l-4 55q10 4 21 7.5t25 6.5 q18 5 40.5 7.5t51.5 2.5q56 0 103 -19t80.5 -53.5t52.5 -84.5t19 -111z" />
<glyph unicode="&#x5dc;" horiz-adv-x="458" d="M389 220q-2 -19 -6.5 -42.5t-13.5 -47.5t-22.5 -47t-33.5 -40q-32 -27 -69 -34.5t-70 -8.5v48q18 0 39 3.5t38 13.5q21 13 35 31t22 38t12 40t6 37l21 251h-307v238h63v-190h311z" />
<glyph unicode="&#x5dd;" horiz-adv-x="560" d="M70 0v510h63v-44h6q28 30 71 43t95 13q35 0 68.5 -14.5t59.5 -43t41.5 -70.5t15.5 -96v-298h-420zM427 264q0 107 -34.5 158.5t-109.5 51.5q-46 0 -74.5 -10.5t-45.5 -22.5q-19 -15 -30 -33v-360h294v216z" />
<glyph unicode="&#x5de;" horiz-adv-x="559" d="M494 153q0 -13 -1.5 -29.5t-6 -34t-13 -34t-21.5 -28.5q-17 -16 -32.5 -22.5t-38.5 -11.5t-37 -5q-12 0 -24 2t-27 7q-5 2 -9.5 3.5t-9.5 3.5v42q8 -3 17.5 -5.5t17.5 -3.5q22 -2 41.5 0.5t38.5 14.5q24 16 33 33.5t9 52.5v149q0 34 -3 67.5t-15.5 60t-37.5 43t-69 16.5 q-43 0 -74.5 -25.5t-52.5 -60.5t-31 -72t-10 -60v-256h-63v510h63v-109h3q18 35 42 58t49 37t48 20t38 6q95 0 135.5 -58t40.5 -158v-153z" />
<glyph unicode="&#x5df;" horiz-adv-x="213" d="M75 -210v720h63v-720h-63z" />
<glyph unicode="&#x5e0;" horiz-adv-x="310" d="M35 0l12 48h131q0 53 -0.5 102.5t-0.5 88.5v86q0 26 -4.5 50t-14.5 42.5t-25.5 29.5t-37.5 11h-13t-10 -1l-2 54q9 1 20 1h22q45 0 71 -19t38.5 -48.5t15.5 -64t3 -65.5v-315h-205z" />
<glyph unicode="&#x5e1;" horiz-adv-x="543" d="M503 255q0 -55 -14.5 -103.5t-43 -85t-70 -57.5t-95.5 -21t-94.5 21t-67.5 57.5t-40 85t-13 103.5v209q23 12 51 22.5t57 18.5t56.5 12.5t50.5 4.5q55 0 96.5 -20t69.5 -55t42.5 -84.5t14.5 -107.5zM434 255q0 40 -8.5 79.5t-26.5 70.5t-47.5 50t-71.5 19 q-36 0 -70.5 -10.5t-75.5 -32.5v-166q0 -38 5.5 -78t21 -74t44 -55.5t75.5 -21.5q46 0 76 20t47 52t24 70.5t7 76.5z" />
<glyph unicode="&#x5e2;" horiz-adv-x="487" d="M417 239q0 -88 -35 -144.5t-106 -89.5l-218 -102l-19 48l171 82l-180 477h70q37 -118 78.5 -227t81.5 -226q52 24 73 73t21 109v271h63v-271z" />
<glyph unicode="&#x5e3;" horiz-adv-x="508" d="M384 -208v466q0 48 -14 87.5t-39.5 68t-60.5 44t-76 15.5q-17 0 -29.5 -0.5t-22.5 -1.5t-19 -2t-19 -2v-185h94v-43h-148v269q10 3 26.5 5t36.5 3.5t41 2.5t40 1q58 0 105 -18.5t80 -53t51 -83.5t18 -109v-464h-64z" />
<glyph unicode="&#x5e4;" horiz-adv-x="499" d="M459 252q0 -59 -19 -107.5t-53 -83t-81 -53.5t-102 -19q-50 0 -82 4.5t-56 9.5l4 54q16 -7 52 -13.5t78 -6.5q46 0 82 16.5t61 46t38 69t13 85.5q0 48 -14 88.5t-39.5 69t-60.5 44.5t-76 16q-31 0 -50.5 -1.5t-39.5 -3.5v-185h94v-43h-148v269q22 4 40 6t35 3.5t33.5 2 t35.5 0.5q58 0 105 -19t80.5 -53.5t51.5 -84.5t18 -111z" />
<glyph unicode="&#x5e5;" horiz-adv-x="475" d="M436 510q1 -9 1 -18v-17q0 -63 -13.5 -108t-33.5 -76.5t-42.5 -51t-40.5 -31.5l-28 -19q3 -21 3 -38v-361h-63v328q0 29 -1.5 50.5t-5.5 39t-11.5 33t-18.5 32.5l-157 237h77l157 -249l6 -13l11 8q10 7 25.5 18t30.5 35t25.5 66t10.5 111v24h68z" />
<glyph unicode="&#x5e6;" horiz-adv-x="475" d="M437 510q1 -9 1 -18v-17q0 -64 -13.5 -111t-33 -80t-42.5 -54t-41 -34l129 -196h-404v48h296l-304 462h77l175 -266q10 7 26.5 21t32 42.5t25.5 77t8 125.5h68z" />
<glyph unicode="&#x5e7;" horiz-adv-x="544" d="M475 229q-2 -18 -6.5 -41.5t-13.5 -47.5t-22.5 -47t-33.5 -40q-32 -27 -69 -34.5t-70 -8.5v47q15 1 37 4t39 13q21 13 35 31t22.5 38.5t12.5 40.5t6 37l20 241h-377v48h444zM67 -209v493l63 21v-514h-63z" />
<glyph unicode="&#x5e8;" horiz-adv-x="481" d="M348 0v316q0 76 -31.5 117t-109.5 41q-17 0 -38.5 -3t-43.5 -8t-43 -13t-39 -18l-3 46q35 19 86 31.5t96 12.5q102 0 145.5 -51.5t43.5 -156.5v-314h-63z" />
<glyph unicode="&#x5e9;" horiz-adv-x="653" d="M145 156q8 -24 22 -46t36 -38.5t52.5 -26t70.5 -9.5q55 0 92.5 20t59.5 50t31.5 63.5t9.5 60.5v280h64v-280q0 -34 -12.5 -76t-42 -79t-79 -62t-123.5 -25t-123.5 22.5t-79 58t-41.5 78t-12 83.5v280h64v-280v-16.5t2 -16.5q5 0 31.5 4.5t57.5 21.5q19 10 32.5 27 t21.5 36.5t12 41t4 40.5v142h63v-151q0 -45 -21.5 -89t-55.5 -67q-37 -25 -68.5 -33.5t-61.5 -13.5h-6z" />
<glyph unicode="&#x5ea;" horiz-adv-x="569" d="M446 0v316q0 76 -31.5 117t-109.5 41q-21 0 -44.5 -1.5t-55.5 -6.5v-252q0 -18 -0.5 -41t-4 -47t-11 -47.5t-22 -41.5t-36.5 -29t-54 -11q-11 0 -22 0.5t-20 1.5l2 50q5 -1 10 -1h13q25 0 41 10.5t25 28.5t12.5 41.5t3.5 50.5v273q-17 -6 -29 -10.5t-21 -9.5v48 q34 19 92 30.5t136 11.5q102 0 145.5 -51.5t43.5 -156.5v-314h-63z" />
<glyph unicode="&#x5f0;" horiz-adv-x="365" d="M75 0v510h63v-510h-63zM227 0v510h63v-510h-63z" />
<glyph unicode="&#x5f1;" horiz-adv-x="359" d="M221 0v510h63v-510h-63zM75 193v317h63v-294z" />
<glyph unicode="&#x5f2;" horiz-adv-x="359" d="M75 193v317h63v-294zM221 193v317h63v-294z" />
<glyph unicode="&#x5f3;" horiz-adv-x="226" d="M151 501q0 -30 -97 -220h-14q36 103 36 160q0 26 -32 65l70 71q35 -44 37 -76z" />
<glyph unicode="&#x5f4;" horiz-adv-x="425" d="M338 500q0 -32 -97 -220h-14q18 53 27.5 93t9.5 67q0 21 -32 65l69 71q37 -44 37 -76zM166 499q0 -30 -98 -220h-13q36 106 36 160q0 22 -31 65l69 71q37 -46 37 -76z" />
<glyph unicode="&#x2013;" horiz-adv-x="414" d="M69 245v48h276v-48h-276z" />
<glyph unicode="&#x2014;" horiz-adv-x="484" d="M69 245v48h346v-48h-346z" />
<glyph unicode="&#x2018;" horiz-adv-x="169" d="M103 404l-61 203h58l44 -203h-41z" />
<glyph unicode="&#x2019;" horiz-adv-x="169" d="M82 404h-40l43 203h59z" />
<glyph unicode="&#x201a;" horiz-adv-x="209" d="M138 41q0 -30 -97 -220h-14q36 103 36 160q0 26 -32 65l70 71q35 -44 37 -76z" />
<glyph unicode="&#x201c;" horiz-adv-x="320" d="M103 404l-61 203h58l44 -203h-41zM254 404l-61 203h58l44 -203h-41z" />
<glyph unicode="&#x201d;" horiz-adv-x="322" d="M82 404h-40l43 203h59zM235 404h-40l43 203h59z" />
<glyph unicode="&#x201e;" horiz-adv-x="380" d="M338 120q0 -32 -97 -220h-14q18 53 27.5 93t9.5 67q0 21 -32 65l69 71q37 -44 37 -76zM166 119q0 -30 -98 -220h-13q36 106 36 160q0 22 -31 65l69 71q37 -46 37 -76z" />
<glyph unicode="&#x2022;" horiz-adv-x="449" d="M430 297q0 -84 -60 -145q-60 -60 -144 -60q-85 0 -146 60q-60 60 -60 145t60 144q62 59 146 59t144 -60q60 -59 60 -143z" />
<glyph unicode="&#x2026;" horiz-adv-x="565" d="M547 52q-18 -16 -34.5 -34t-32.5 -35q-17 17 -33.5 34.5t-33.5 34.5q18 17 35 34l34 34q31 -35 65 -68zM357 52q-18 -16 -34.5 -34t-32.5 -35q-17 17 -33.5 34.5t-33.5 34.5q18 17 35 34l34 34q31 -35 65 -68zM167 52q-18 -16 -34.5 -34t-32.5 -35q-17 17 -33.5 34.5 t-33.5 34.5q18 17 35 34l34 34q31 -35 65 -68z" />
<glyph unicode="&#x2039;" horiz-adv-x="330" d="M280 0h-31l-199 230l199 229h31l-128 -229z" />
<glyph unicode="&#x203a;" horiz-adv-x="330" d="M280 230l-199 -230h-31l128 230l-128 229h31z" />
<glyph unicode="&#x20ac;" horiz-adv-x="615" d="M516 47q-33 -27 -72 -42t-81 -15q-41 0 -79 14t-69.5 40t-55.5 63t-37 83h-78l18 33h54q-1 12 -1 20.5v16.5v13t1 16h-72l18 33h60q14 45 38 81.5t55.5 62t69 39t78.5 13.5q42 0 81 -14.5t72 -41.5l-16 -29q-29 25 -64 38.5t-73 13.5q-67 0 -121 -41t-89 -122h288 l-18 -33h-275q-2 -17 -2 -23.5v-11.5v-9.5t1 -21.5h240l-18 -33h-216q34 -81 88 -123.5t122 -42.5q38 0 73 13.5t64 38.5q4 -8 8 -14.5t8 -14.5z" />
<glyph unicode="&#x2122;" horiz-adv-x="1034" d="M1006 275h-203v18q37 0 50 22q10 16 10 56v234h-2l-153 -330h-17l-153 325h-2v-229q0 -41 12 -58q14 -20 48 -20v-18h-151v18q35 0 48 20q12 17 12 58v214q0 41 -12.5 59t-47.5 18v18h146l138 -288l133 288h144v-18q-38 0 -51 -22q-9 -15 -9 -55v-214q0 -41 12 -58 q13 -20 48 -20v-18zM410 578h-16q-10 44 -40 59q-22 11 -74 11h-22v-277q0 -40 9 -56q13 -22 52 -22v-18h-201v18q37 0 49 23q8 16 8 55v277h-18q-54 0 -75 -10q-31 -15 -39 -60h-19l12 102h365z" />
<glyph unicode="&#xe000;" horiz-adv-x="460" d="M0 460h460v-460h-460v460z" />
<glyph unicode="&#xfb01;" horiz-adv-x="538" d="M518 0h-484v18q44 0 59 21q13 17 13 68v318h-88v34h88v69q0 36 12.5 67t36 53.5t58 35t79.5 12.5q69 0 110 -19q47 -23 47 -62t-41 -39q-36 0 -49 22l-18 42q-15 22 -53 22q-43 0 -71 -25t-28 -61v-117h257v-352q0 -51 14 -70t58 -19v-18zM363 353q0 45 -4 56 q-4 16 -26 16h-144v-318q0 -51 14 -70t58 -19h30q44 0 59 21q13 17 13 68v246z" />
<glyph unicode="&#xfb02;" horiz-adv-x="587" d="M563 0h-227v18q44 0 59 21q13 17 13 68v443v31.5t-1 17.5q-9 -23 -39 -23q-31 0 -53 43t-57 43q-13 0 -25.5 -7t-22 -19t-15.5 -27.5t-6 -32.5v-117h112v-34h-112v-318q0 -51 14 -70t58 -19v-18h-227v18q44 0 59 21q13 17 13 68v318h-88v34h88v69q0 69 45 119 q46 49 111 49q90 0 127 -35l78 35h24v-589q0 -51 14 -70t58 -19v-18z" />
<glyph unicode="&#xfb1f;" horiz-adv-x="373" d="M111 -53v35h152v-35h-152zM75 193v317h63v-294zM235 193v317h63v-294z" />
<glyph unicode="&#xfb20;" horiz-adv-x="487" d="M417 239q0 -88 -35 -144.5t-106 -89.5l-218 -102l-19 48l171 82l-180 477h70q37 -118 78.5 -227t81.5 -226q52 24 73 73t21 109v271h63v-271z" />
<glyph unicode="&#xfb21;" horiz-adv-x="536" d="M489 510v-57q0 -60 -13 -104t-31.5 -75.5t-40 -52t-39.5 -32.5q18 -28 35.5 -55.5t33.5 -52.5t29.5 -46t21.5 -35h-76q-23 40 -46.5 76.5t-49 75t-55 80t-64.5 91.5q-27 -26 -44.5 -58.5t-27.5 -68.5t-13.5 -75t-3.5 -78v-43h-62q0 9 -0.5 23t-0.5 32q0 30 3.5 68.5 t15.5 80.5t35 84.5t62 80.5q-27 36 -58.5 75t-54.5 66h80q36 -44 62.5 -76.5t49 -62.5t45 -61t50.5 -72q8 6 23.5 17.5t31.5 34.5t27.5 62t11.5 100v58h63z" />
<glyph unicode="&#xfb22;" horiz-adv-x="464" d="M326 462v-462h-63v462h-223v48h376v-48h-90z" />
<glyph unicode="&#xfb23;" horiz-adv-x="542" d="M408 0v316q0 78 -46.5 118t-124.5 40q-17 0 -38.5 -3t-43.5 -8t-43 -13t-39 -18l-3 46q35 19 86 31.5t96 12.5q103 0 161 -51.5t58 -156.5v-314h-63zM74 0v248l63 21v-269h-63z" />
<glyph unicode="&#xfb24;" horiz-adv-x="463" d="M423 252q0 -59 -19 -107.5t-52.5 -83t-80.5 -53.5t-103 -19q-25 0 -44 2t-35 5t-30 7.5t-29 9.5l4 54q28 -17 58 -23.5t72 -6.5q46 0 82 16.5t61 46t38 69t13 85.5q0 48 -14 88.5t-39.5 69t-60.5 44.5t-76 16q-44 0 -73.5 -7t-60.5 -24l-4 55q10 4 21 7.5t25 6.5 q18 5 40.5 7.5t51.5 2.5q56 0 103 -19t80.5 -53.5t52.5 -84.5t19 -111z" />
<glyph unicode="&#xfb25;" horiz-adv-x="458" d="M389 220q-2 -19 -6.5 -42.5t-13.5 -47.5t-22.5 -47t-33.5 -40q-32 -27 -69 -34.5t-70 -8.5v48q18 0 39 3.5t38 13.5q21 13 35 31t22 38t12 40t6 37l21 251h-307v238h63v-190h311z" />
<glyph unicode="&#xfb26;" horiz-adv-x="560" d="M70 0v510h63v-44h6q28 30 71 43t95 13q35 0 68.5 -14.5t59.5 -43t41.5 -70.5t15.5 -96v-298h-420zM427 264q0 107 -34.5 158.5t-109.5 51.5q-46 0 -74.5 -10.5t-45.5 -22.5q-19 -15 -30 -33v-360h294v216z" />
<glyph unicode="&#xfb27;" horiz-adv-x="481" d="M348 0v316q0 76 -31.5 117t-109.5 41q-17 0 -38.5 -3t-43.5 -8t-43 -13t-39 -18l-3 46q35 19 86 31.5t96 12.5q102 0 145.5 -51.5t43.5 -156.5v-314h-63z" />
<glyph unicode="&#xfb28;" horiz-adv-x="569" d="M446 0v316q0 76 -31.5 117t-109.5 41q-21 0 -44.5 -1.5t-55.5 -6.5v-252q0 -18 -0.5 -41t-4 -47t-11 -47.5t-22 -41.5t-36.5 -29t-54 -11q-11 0 -22 0.5t-20 1.5l2 50q5 -1 10 -1h13q25 0 41 10.5t25 28.5t12.5 41.5t3.5 50.5v273q-17 -6 -29 -10.5t-21 -9.5v48 q34 19 92 30.5t136 11.5q102 0 145.5 -51.5t43.5 -156.5v-314h-63z" />
<glyph unicode="&#xfb29;" horiz-adv-x="460" d="M428 209h-396v108h144v142h108v-142h144v-108z" />
<glyph unicode="&#xfb2a;" horiz-adv-x="653" d="M145 156q8 -24 22 -46t36 -38.5t52.5 -26t70.5 -9.5q55 0 92.5 20t59.5 50t31.5 63.5t9.5 60.5v280h64v-280q0 -34 -12.5 -76t-42 -79t-79 -62t-123.5 -25t-123.5 22.5t-79 58t-41.5 78t-12 83.5v280h64v-280v-16.5t2 -16.5q5 0 31.5 4.5t57.5 21.5q19 10 32.5 27 t21.5 36.5t12 41t4 40.5v142h63v-151q0 -45 -21.5 -89t-55.5 -67q-37 -25 -68.5 -33.5t-61.5 -13.5h-6zM585 626q0 -14 -9.5 -24t-24.5 -10q-14 0 -24 10t-10 24q0 15 10 24.5t24 9.5q15 0 24.5 -9.5t9.5 -24.5z" />
<glyph unicode="&#xfb2b;" horiz-adv-x="653" d="M145 156q8 -24 22 -46t36 -38.5t52.5 -26t70.5 -9.5q55 0 92.5 20t59.5 50t31.5 63.5t9.5 60.5v280h64v-280q0 -34 -12.5 -76t-42 -79t-79 -62t-123.5 -25t-123.5 22.5t-79 58t-41.5 78t-12 83.5v280h64v-280v-16.5t2 -16.5q5 0 31.5 4.5t57.5 21.5q19 10 32.5 27 t21.5 36.5t12 41t4 40.5v142h63v-151q0 -45 -21.5 -89t-55.5 -67q-37 -25 -68.5 -33.5t-61.5 -13.5h-6zM137 626q0 -14 -9.5 -24t-24.5 -10q-14 0 -24 10t-10 24q0 15 10 24.5t24 9.5q15 0 24.5 -9.5t9.5 -24.5z" />
<glyph unicode="&#xfb2c;" horiz-adv-x="653" d="M145 156q8 -24 22 -46t36 -38.5t52.5 -26t70.5 -9.5q55 0 92.5 20t59.5 50t31.5 63.5t9.5 60.5v280h64v-280q0 -34 -12.5 -76t-42 -79t-79 -62t-123.5 -25t-123.5 22.5t-79 58t-41.5 78t-12 83.5v280h64v-280v-16.5t2 -16.5q5 0 31.5 4.5t57.5 21.5q19 10 32.5 27 t21.5 36.5t12 41t4 40.5v142h63v-151q0 -45 -21.5 -89t-55.5 -67q-37 -25 -68.5 -33.5t-61.5 -13.5h-6zM553 626q0 -14 -9.5 -24t-24.5 -10q-14 0 -24 10t-10 24q0 15 10 24.5t24 9.5q15 0 24.5 -9.5t9.5 -24.5zM458 255q0 -14 -9.5 -24t-24.5 -10q-14 0 -24 10t-10 24 q0 15 10 24.5t24 9.5q15 0 24.5 -9.5t9.5 -24.5z" />
<glyph unicode="&#xfb2d;" horiz-adv-x="653" d="M145 156q8 -24 22 -46t36 -38.5t52.5 -26t70.5 -9.5q55 0 92.5 20t59.5 50t31.5 63.5t9.5 60.5v280h64v-280q0 -34 -12.5 -76t-42 -79t-79 -62t-123.5 -25t-123.5 22.5t-79 58t-41.5 78t-12 83.5v280h64v-280v-16.5t2 -16.5q5 0 31.5 4.5t57.5 21.5q19 10 32.5 27 t21.5 36.5t12 41t4 40.5v142h63v-151q0 -45 -21.5 -89t-55.5 -67q-37 -25 -68.5 -33.5t-61.5 -13.5h-6zM458 255q0 -14 -9.5 -24t-24.5 -10q-14 0 -24 10t-10 24q0 15 10 24.5t24 9.5q15 0 24.5 -9.5t9.5 -24.5zM166 626q0 -14 -9.5 -24t-24.5 -10q-14 0 -24 10t-10 24 q0 15 10 24.5t24 9.5q15 0 24.5 -9.5t9.5 -24.5z" />
<glyph unicode="&#xfb2e;" horiz-adv-x="536" d="M489 510v-57q0 -60 -13 -104t-31.5 -75.5t-40 -52t-39.5 -32.5q18 -28 35.5 -55.5t33.5 -52.5t29.5 -46t21.5 -35h-76q-23 40 -46.5 76.5t-49 75t-55 80t-64.5 91.5q-27 -26 -44.5 -58.5t-27.5 -68.5t-13.5 -75t-3.5 -78v-43h-62q0 9 -0.5 23t-0.5 32q0 30 3.5 68.5 t15.5 80.5t35 84.5t62 80.5q-27 36 -58.5 75t-54.5 66h80q36 -44 62.5 -76.5t49 -62.5t45 -61t50.5 -72q8 6 23.5 17.5t31.5 34.5t27.5 62t11.5 100v58h63zM189 -137v35h152v-35h-152z" />
<glyph unicode="&#xfb2f;" horiz-adv-x="536" d="M489 510v-57q0 -60 -13 -104t-31.5 -75.5t-40 -52t-39.5 -32.5q18 -28 35.5 -55.5t33.5 -52.5t29.5 -46t21.5 -35h-76q-23 40 -46.5 76.5t-49 75t-55 80t-64.5 91.5q-27 -26 -44.5 -58.5t-27.5 -68.5t-13.5 -75t-3.5 -78v-43h-62q0 9 -0.5 23t-0.5 32q0 30 3.5 68.5 t15.5 80.5t35 84.5t62 80.5q-27 36 -58.5 75t-54.5 66h80q36 -44 62.5 -76.5t49 -62.5t45 -61t50.5 -72q8 6 23.5 17.5t31.5 34.5t27.5 62t11.5 100v58h63zM282 -136l3 -85h-40l2 85h-57v34h151v-34h-59z" />
<glyph unicode="&#xfb30;" horiz-adv-x="536" d="M489 510v-57q0 -60 -13 -104t-31.5 -75.5t-40 -52t-39.5 -32.5q18 -28 35.5 -55.5t33.5 -52.5t29.5 -46t21.5 -35h-76q-23 40 -46.5 76.5t-49 75t-55 80t-64.5 91.5q-27 -26 -44.5 -58.5t-27.5 -68.5t-13.5 -75t-3.5 -78v-43h-62q0 9 -0.5 23t-0.5 32q0 30 3.5 68.5 t15.5 80.5t35 84.5t62 80.5q-27 36 -58.5 75t-54.5 66h80q36 -44 62.5 -76.5t49 -62.5t45 -61t50.5 -72q8 6 23.5 17.5t31.5 34.5t27.5 62t11.5 100v58h63zM299 -95q0 -14 -9.5 -24t-24.5 -10q-14 0 -24 10t-10 24q0 15 10 24.5t24 9.5q15 0 24.5 -9.5t9.5 -24.5z" />
<glyph unicode="&#xfb31;" horiz-adv-x="516" d="M35 0v48h297v268q0 76 -31.5 117t-109.5 41q-35 0 -70.5 -10.5t-64.5 -30.5l-2 45q32 20 70 32t82 12q102 0 145.5 -51.5t43.5 -156.5v-266h76v-48h-436zM221 255q0 -14 -9.5 -24t-24.5 -10q-14 0 -24 10t-10 24q0 15 10 24.5t24 9.5q15 0 24.5 -9.5t9.5 -24.5z" />
<glyph unicode="&#xfb32;" horiz-adv-x="324" d="M199 0v185h-2q-13 -23 -27.5 -45.5t-33.5 -46.5t-44.5 -50t-61.5 -56v69q19 19 46.5 48t52.5 61.5t42.5 65t17.5 56.5v54q0 26 -3 48t-11.5 38t-25 25t-43.5 9h-13t-10 -1l-2 50q9 1 20 1.5t22 0.5q45 0 71 -19t39 -48.5t16 -64t3 -65.5v-224q0 -33 0.5 -55t1.5 -36h-55z M144 295q0 -14 -9.5 -24t-24.5 -10q-14 0 -24 10t-10 24q0 15 10 24.5t24 9.5q15 0 24.5 -9.5t9.5 -24.5z" />
<glyph unicode="&#xfb33;" horiz-adv-x="464" d="M326 462v-462h-63v462h-223v48h376v-48h-90zM181 254q0 -14 -9.5 -24t-24.5 -10q-14 0 -24 10t-10 24q0 15 10 24.5t24 9.5q15 0 24.5 -9.5t9.5 -24.5z" />
<glyph unicode="&#xfb34;" horiz-adv-x="542" d="M408 0v316q0 78 -46.5 118t-124.5 40q-17 0 -38.5 -3t-43.5 -8t-43 -13t-39 -18l-3 46q35 19 86 31.5t96 12.5q103 0 161 -51.5t58 -156.5v-314h-63zM74 0v248l63 21v-269h-63zM310 254q0 -14 -9.5 -24t-24.5 -10q-14 0 -24 10t-10 24q0 15 10 24.5t24 9.5 q15 0 24.5 -9.5t9.5 -24.5z" />
<glyph unicode="&#xfb35;" horiz-adv-x="231" d="M93 0v510h63v-510h-63zM68 272q0 -14 -9.5 -24t-24.5 -10q-14 0 -24 10t-10 24q0 15 10 24.5t24 9.5q15 0 24.5 -9.5t9.5 -24.5z" />
<glyph unicode="&#xfb36;" horiz-adv-x="286" d="M246 462q-17 0 -31 -4.5t-28 -16.5q-23 -20 -28.5 -47.5t-1.5 -50.5l57 -343h-63l-51 310q-3 19 -1.5 39.5t7 39.5t14.5 33.5t22 20.5q5 3 11 6t8 6t-0.5 5t-14.5 2h-111v48h216v-48h-5zM76 255q0 -14 -9.5 -24t-24.5 -10q-14 0 -24 10t-10 24q0 15 10 24.5t24 9.5 q15 0 24.5 -9.5t9.5 -24.5z" />
<glyph unicode="&#xfb38;" horiz-adv-x="549" d="M489 204q0 -100 -51 -158t-147 -58h-22q-95 0 -147 58t-52 158v306h63v-264q0 -34 6.5 -71t23 -68t45 -51t72.5 -20t72.5 20t45 51t22.5 68t6 71v126q0 35 -9 52.5t-33 33.5q-19 12 -38.5 14.5t-41.5 0.5q-8 -1 -17.5 -3.5t-17.5 -5.5v42q5 2 9.5 3.5t9.5 3.5q15 5 27 7 t24 2q14 0 37 -5t38.5 -11.5t32.5 -22.5q13 -12 21.5 -28.5t13 -34t6 -34t1.5 -29.5v-153v0zM317 254q0 -14 -9.5 -24t-24.5 -10q-14 0 -24 10t-10 24q0 15 10 24.5t24 9.5q15 0 24.5 -9.5t9.5 -24.5z" />
<glyph unicode="&#xfb39;" horiz-adv-x="230" d="M92 193v317h63v-294zM68 360q0 -14 -9.5 -24t-24.5 -10q-14 0 -24 10t-10 24q0 15 10 24.5t24 9.5q15 0 24.5 -9.5t9.5 -24.5z" />
<glyph unicode="&#xfb3a;" horiz-adv-x="476" d="M343 -210v530q0 75 -31.5 115t-109.5 40q-17 0 -38.5 -2.5t-43.5 -8t-43 -13t-39 -17.5l-3 45q35 19 86 31t96 12q102 0 145.5 -50.5t43.5 -153.5v-528h-63zM232 254q0 -14 -9.5 -24t-24.5 -10q-14 0 -24 10t-10 24q0 15 10 24.5t24 9.5q15 0 24.5 -9.5t9.5 -24.5z" />
<glyph unicode="&#xfb3b;" horiz-adv-x="463" d="M423 252q0 -59 -19 -107.5t-52.5 -83t-80.5 -53.5t-103 -19q-25 0 -44 2t-35 5t-30 7.5t-29 9.5l4 54q28 -17 58 -23.5t72 -6.5q46 0 82 16.5t61 46t38 69t13 85.5q0 48 -14 88.5t-39.5 69t-60.5 44.5t-76 16q-44 0 -73.5 -7t-60.5 -24l-4 55q10 4 21 7.5t25 6.5 q18 5 40.5 7.5t51.5 2.5q56 0 103 -19t80.5 -53.5t52.5 -84.5t19 -111zM199 254q0 -14 -9.5 -24t-24.5 -10q-14 0 -24 10t-10 24q0 15 10 24.5t24 9.5q15 0 24.5 -9.5t9.5 -24.5z" />
<glyph unicode="&#xfb3c;" horiz-adv-x="458" d="M389 220q-2 -19 -6.5 -42.5t-13.5 -47.5t-22.5 -47t-33.5 -40q-32 -27 -69 -34.5t-70 -8.5v48q18 0 39 3.5t38 13.5q21 13 35 31t22 38t12 40t6 37l21 251h-307v238h63v-190h311zM224 299q0 -14 -9.5 -24t-24.5 -10q-14 0 -24 10t-10 24q0 15 10 24.5t24 9.5 q15 0 24.5 -9.5t9.5 -24.5z" />
<glyph unicode="&#xfb3e;" horiz-adv-x="559" d="M494 153q0 -13 -1.5 -29.5t-6 -34t-13 -34t-21.5 -28.5q-17 -16 -32.5 -22.5t-38.5 -11.5t-37 -5q-12 0 -24 2t-27 7q-5 2 -9.5 3.5t-9.5 3.5v42q8 -3 17.5 -5.5t17.5 -3.5q22 -2 41.5 0.5t38.5 14.5q24 16 33 33.5t9 52.5v149q0 34 -3 67.5t-15.5 60t-37.5 43t-69 16.5 q-43 0 -74.5 -25.5t-52.5 -60.5t-31 -72t-10 -60v-256h-63v510h63v-109h3q18 35 42 58t49 37t48 20t38 6q95 0 135.5 -58t40.5 -158v-153zM324 255q0 -14 -9.5 -24t-24.5 -10q-14 0 -24 10t-10 24q0 15 10 24.5t24 9.5q15 0 24.5 -9.5t9.5 -24.5z" />
<glyph unicode="&#xfb40;" horiz-adv-x="310" d="M35 0l12 48h131q0 53 -0.5 102.5t-0.5 88.5v86q0 26 -4.5 50t-14.5 42.5t-25.5 29.5t-37.5 11h-13t-10 -1l-2 54q9 1 20 1h22q45 0 71 -19t38.5 -48.5t15.5 -64t3 -65.5v-315h-205zM119 254q0 -14 -9.5 -24t-24.5 -10q-14 0 -24 10t-10 24q0 15 10 24.5t24 9.5 q15 0 24.5 -9.5t9.5 -24.5z" />
<glyph unicode="&#xfb41;" horiz-adv-x="543" d="M503 255q0 -55 -14.5 -103.5t-43 -85t-70 -57.5t-95.5 -21t-94.5 21t-67.5 57.5t-40 85t-13 103.5v209q23 12 51 22.5t57 18.5t56.5 12.5t50.5 4.5q55 0 96.5 -20t69.5 -55t42.5 -84.5t14.5 -107.5zM434 255q0 40 -8.5 79.5t-26.5 70.5t-47.5 50t-71.5 19 q-36 0 -70.5 -10.5t-75.5 -32.5v-166q0 -38 5.5 -78t21 -74t44 -55.5t75.5 -21.5q46 0 76 20t47 52t24 70.5t7 76.5zM317 254q0 -14 -9.5 -24t-24.5 -10q-14 0 -24 10t-10 24q0 15 10 24.5t24 9.5q15 0 24.5 -9.5t9.5 -24.5z" />
<glyph unicode="&#xfb43;" horiz-adv-x="508" d="M384 -208v466q0 48 -14 87.5t-39.5 68t-60.5 44t-76 15.5q-17 0 -29.5 -0.5t-22.5 -1.5t-19 -2t-19 -2v-185h94v-43h-148v269q10 3 26.5 5t36.5 3.5t41 2.5t40 1q58 0 105 -18.5t80 -53t51 -83.5t18 -109v-464h-64zM327 272q0 -14 -9.5 -24t-24.5 -10q-14 0 -24 10 t-10 24q0 15 10 24.5t24 9.5q15 0 24.5 -9.5t9.5 -24.5z" />
<glyph unicode="&#xfb44;" horiz-adv-x="499" d="M459 252q0 -59 -19 -107.5t-53 -83t-81 -53.5t-102 -19q-50 0 -82 4.5t-56 9.5l4 54q16 -7 52 -13.5t78 -6.5q46 0 82 16.5t61 46t38 69t13 85.5q0 48 -14 88.5t-39.5 69t-60.5 44.5t-76 16q-31 0 -50.5 -1.5t-39.5 -3.5v-185h94v-43h-148v269q22 4 40 6t35 3.5t33.5 2 t35.5 0.5q58 0 105 -19t80.5 -53.5t51.5 -84.5t18 -111zM334 271q0 -14 -9.5 -24t-24.5 -10q-14 0 -24 10t-10 24q0 15 10 24.5t24 9.5q15 0 24.5 -9.5t9.5 -24.5z" />
<glyph unicode="&#xfb46;" horiz-adv-x="475" d="M437 510q1 -9 1 -18v-17q0 -64 -13.5 -111t-33 -80t-42.5 -54t-41 -34l129 -196h-404v48h296l-304 462h77l175 -266q10 7 26.5 21t32 42.5t25.5 77t8 125.5h68zM174 151q0 -14 -9.5 -24t-24.5 -10q-14 0 -24 10t-10 24q0 15 10 24.5t24 9.5q15 0 24.5 -9.5t9.5 -24.5z " />
<glyph unicode="&#xfb47;" horiz-adv-x="544" d="M475 229q-2 -18 -6.5 -41.5t-13.5 -47.5t-22.5 -47t-33.5 -40q-32 -27 -69 -34.5t-70 -8.5v47q15 1 37 4t39 13q21 13 35 31t22.5 38.5t12.5 40.5t6 37l20 241h-377v48h444zM67 -209v493l63 21v-514h-63zM307 254q0 -14 -9.5 -24t-24.5 -10q-14 0 -24 10t-10 24 q0 15 10 24.5t24 9.5q15 0 24.5 -9.5t9.5 -24.5z" />
<glyph unicode="&#xfb48;" horiz-adv-x="481" d="M348 0v316q0 76 -31.5 117t-109.5 41q-17 0 -38.5 -3t-43.5 -8t-43 -13t-39 -18l-3 46q35 19 86 31.5t96 12.5q102 0 145.5 -51.5t43.5 -156.5v-314h-63zM218 254q0 -14 -9.5 -24t-24.5 -10q-14 0 -24 10t-10 24q0 15 10 24.5t24 9.5q15 0 24.5 -9.5t9.5 -24.5z" />
<glyph unicode="&#xfb49;" horiz-adv-x="653" d="M145 156q8 -24 22 -46t36 -38.5t52.5 -26t70.5 -9.5q55 0 92.5 20t59.5 50t31.5 63.5t9.5 60.5v280h64v-280q0 -34 -12.5 -76t-42 -79t-79 -62t-123.5 -25t-123.5 22.5t-79 58t-41.5 78t-12 83.5v280h64v-280v-16.5t2 -16.5q5 0 31.5 4.5t57.5 21.5q19 10 32.5 27 t21.5 36.5t12 41t4 40.5v142h63v-151q0 -45 -21.5 -89t-55.5 -67q-37 -25 -68.5 -33.5t-61.5 -13.5h-6zM458 255q0 -14 -9.5 -24t-24.5 -10q-14 0 -24 10t-10 24q0 15 10 24.5t24 9.5q15 0 24.5 -9.5t9.5 -24.5z" />
<glyph unicode="&#xfb4a;" horiz-adv-x="569" d="M446 0v316q0 76 -31.5 117t-109.5 41q-21 0 -44.5 -1.5t-55.5 -6.5v-252q0 -18 -0.5 -41t-4 -47t-11 -47.5t-22 -41.5t-36.5 -29t-54 -11q-11 0 -22 0.5t-20 1.5l2 50q5 -1 10 -1h13q25 0 41 10.5t25 28.5t12.5 41.5t3.5 50.5v273q-17 -6 -29 -10.5t-21 -9.5v48 q34 19 92 30.5t136 11.5q102 0 145.5 -51.5t43.5 -156.5v-314h-63zM361 254q0 -14 -9.5 -24t-24.5 -10q-14 0 -24 10t-10 24q0 15 10 24.5t24 9.5q15 0 24.5 -9.5t9.5 -24.5z" />
<glyph unicode="&#xfb4b;" horiz-adv-x="218" d="M77 0v510h63v-510h-63zM143 623q0 -14 -9.5 -24t-24.5 -10q-14 0 -24 10t-10 24q0 15 10 24.5t24 9.5q15 0 24.5 -9.5t9.5 -24.5z" />
<glyph unicode="&#xfb4c;" horiz-adv-x="516" d="M35 0v48h297v268q0 76 -31.5 117t-109.5 41q-35 0 -70.5 -10.5t-64.5 -30.5l-2 45q32 20 70 32t82 12q102 0 145.5 -51.5t43.5 -156.5v-266h76v-48h-436zM121 568v42h177v-42h-177z" />
<glyph unicode="&#xfb4d;" horiz-adv-x="463" d="M423 252q0 -59 -19 -107.5t-52.5 -83t-80.5 -53.5t-103 -19q-25 0 -44 2t-35 5t-30 7.5t-29 9.5l4 54q28 -17 58 -23.5t72 -6.5q46 0 82 16.5t61 46t38 69t13 85.5q0 48 -14 88.5t-39.5 69t-60.5 44.5t-76 16q-44 0 -73.5 -7t-60.5 -24l-4 55q10 4 21 7.5t25 6.5 q18 5 40.5 7.5t51.5 2.5q56 0 103 -19t80.5 -53.5t52.5 -84.5t19 -111zM85 568v42h177v-42h-177z" />
<glyph unicode="&#xfb4e;" horiz-adv-x="499" d="M459 252q0 -59 -19 -107.5t-53 -83t-81 -53.5t-102 -19q-50 0 -82 4.5t-56 9.5l4 54q16 -7 52 -13.5t78 -6.5q46 0 82 16.5t61 46t38 69t13 85.5q0 48 -14 88.5t-39.5 69t-60.5 44.5t-76 16q-31 0 -50.5 -1.5t-39.5 -3.5v-185h94v-43h-148v269q22 4 40 6t35 3.5t33.5 2 t35.5 0.5q58 0 105 -19t80.5 -53.5t51.5 -84.5t18 -111zM119 568v42h177v-42h-177z" />
<glyph unicode="&#xfb4f;" horiz-adv-x="449" d="M430 297q0 -84 -60 -145q-60 -60 -144 -60q-85 0 -146 60q-60 60 -60 145t60 144q62 59 146 59t144 -60q60 -59 60 -143z" />
<glyph d="M-50 689q0 21 14.5 35.5t35.5 14.5t35.5 -14.5t14.5 -35.5t-14.5 -35.5t-35.5 -14.5t-35.5 14.5t-14.5 35.5z" />
</font>
</defs>
</svg>
